<?xml version="1.0" encoding="utf-8" standalone="no"?>
<!DOCTYPE svg PUBLIC "-//W3C//DTD SVG 1.1//EN"
  "http://www.w3.org/Graphics/SVG/1.1/DTD/svg11.dtd">
<svg xmlns:xlink="http://www.w3.org/1999/xlink" width="842.4pt" height="266.4pt" viewBox="0 0 842.4 266.4" xmlns="http://www.w3.org/2000/svg" version="1.1">
 <metadata>
  <rdf:RDF xmlns:dc="http://purl.org/dc/elements/1.1/" xmlns:cc="http://creativecommons.org/ns#" xmlns:rdf="http://www.w3.org/1999/02/22-rdf-syntax-ns#">
   <cc:Work>
    <dc:type rdf:resource="http://purl.org/dc/dcmitype/StillImage"/>
    <dc:date>2025-07-07T09:18:16.245761</dc:date>
    <dc:format>image/svg+xml</dc:format>
    <dc:creator>
     <cc:Agent>
      <dc:title>Matplotlib v3.10.3, https://matplotlib.org/</dc:title>
     </cc:Agent>
    </dc:creator>
   </cc:Work>
  </rdf:RDF>
 </metadata>
 <defs>
  <style type="text/css">*{stroke-linejoin: round; stroke-linecap: butt}</style>
 </defs>
 <g id="figure_1">
  <g id="patch_1">
   <path d="M 0 266.4 
L 842.4 266.4 
L 842.4 0 
L 0 0 
L 0 266.4 
z
" style="fill: none"/>
  </g>
  <g id="axes_1">
   <g id="line2d_1">
    <path d="M 38.290909 254.290909 
L 38.929357 171.123631 
L 39.567805 124.265837 
L 40.206253 102.694304 
L 40.525477 95.877164 
L 40.8447 95.378786 
L 41.802372 116.728991 
L 42.121596 118.93982 
L 42.44082 118.80418 
L 42.760044 119.41186 
L 43.079268 123.362531 
L 43.398492 129.788152 
L 43.717716 138.989191 
L 44.356164 166.551565 
L 44.675387 173.115656 
L 44.994611 174.947375 
L 45.313835 178.378303 
L 45.952283 191.110908 
L 46.271507 194.229156 
L 46.909955 194.590098 
L 47.229179 195.998101 
L 47.548403 198.851664 
L 47.867627 200.503163 
L 48.186851 195.845204 
L 48.506075 186.67349 
L 48.825298 180.852513 
L 49.144522 180.890307 
L 49.463746 183.020088 
L 49.78297 183.832138 
L 50.102194 183.499755 
L 50.421418 183.758404 
L 50.740642 186.202067 
L 51.059866 189.671555 
L 51.37909 191.179083 
L 51.698314 190.805608 
L 52.017538 189.426131 
L 52.655985 183.92358 
L 53.294433 177.467665 
L 53.932881 173.451483 
L 54.890553 169.72714 
L 55.529001 167.543647 
L 55.848225 166.569324 
L 56.167449 165.971763 
L 56.486672 166.520165 
L 56.805896 169.314516 
L 57.763568 184.489703 
L 58.402016 189.06738 
L 58.72124 191.011387 
L 59.040464 194.569742 
L 59.678912 205.378338 
L 59.998136 207.639418 
L 60.31736 207.170588 
L 61.275031 203.462521 
L 61.913479 198.440849 
L 62.232703 197.267097 
L 62.551927 196.876448 
L 62.871151 196.243396 
L 63.509599 194.370114 
L 63.828823 194.558368 
L 64.148047 196.984298 
L 64.46727 200.690773 
L 64.786494 202.802224 
L 65.424942 202.417242 
L 65.744166 203.313077 
L 66.06339 203.851644 
L 67.021062 201.918455 
L 67.340286 201.014729 
L 67.65951 199.71977 
L 67.978734 199.735109 
L 69.255629 207.348203 
L 69.574853 207.627143 
L 69.894077 206.642241 
L 70.213301 204.979658 
L 70.532525 202.064858 
L 71.170973 195.048425 
L 71.490197 194.362109 
L 72.128645 195.201263 
L 72.447868 195.23053 
L 72.767092 195.081362 
L 73.086316 195.314131 
L 73.40554 196.459267 
L 73.724764 198.426633 
L 74.043988 198.780997 
L 74.363212 194.115467 
L 75.320884 167.278985 
L 75.640108 163.76087 
L 75.959332 165.391264 
L 76.278555 168.314079 
L 76.597779 172.857951 
L 77.236227 188.250564 
L 77.555451 191.017932 
L 77.874675 187.41295 
L 78.513123 177.944196 
L 79.151571 173.380762 
L 79.790019 170.049313 
L 80.109242 169.256275 
L 80.74769 168.937817 
L 81.066914 169.262043 
L 81.386138 169.762496 
L 81.705362 169.203595 
L 82.663034 164.625806 
L 83.301482 162.332446 
L 83.620706 161.652308 
L 83.93993 161.971159 
L 84.259153 162.80874 
L 84.578377 161.19641 
L 84.897601 157.844792 
L 85.216825 157.689392 
L 85.855273 161.03444 
L 86.493721 167.63006 
L 87.451393 181.335045 
L 87.770617 184.40971 
L 88.08984 188.925399 
L 88.409064 187.97301 
L 88.728288 182.995117 
L 89.047512 182.574832 
L 89.68596 192.852027 
L 90.005184 193.473657 
L 90.643632 190.705277 
L 90.962856 190.63391 
L 91.601304 193.130985 
L 91.920527 191.201198 
L 92.558975 179.772099 
L 92.878199 178.333248 
L 93.197423 180.722831 
L 93.516647 181.551131 
L 93.835871 180.788687 
L 94.155095 182.70105 
L 94.793543 190.833255 
L 95.431991 194.746677 
L 95.751215 193.870569 
L 96.708886 182.652067 
L 97.02811 180.885202 
L 97.347334 180.36734 
L 97.666558 180.433449 
L 98.62423 179.983082 
L 98.943454 180.345863 
L 99.262678 181.282474 
L 99.581902 181.763259 
L 99.901125 180.753617 
L 100.858797 175.044437 
L 101.178021 174.553166 
L 101.497245 175.474819 
L 102.135693 178.429848 
L 102.774141 184.483389 
L 103.093365 185.430523 
L 103.731812 183.93056 
L 104.051036 183.929271 
L 104.37026 184.93207 
L 104.689484 187.202148 
L 105.327932 194.861358 
L 105.647156 197.138157 
L 105.96638 198.034519 
L 106.285604 198.183914 
L 106.604828 197.026078 
L 108.200947 185.731101 
L 108.839395 182.221637 
L 109.158619 179.433203 
L 109.797067 171.499941 
L 110.116291 171.440224 
L 110.754739 177.520191 
L 111.073963 177.910021 
L 111.71241 175.115058 
L 112.670082 170.88452 
L 113.30853 168.766632 
L 113.946978 165.041666 
L 114.266202 163.932253 
L 115.862321 161.467139 
L 116.181545 161.357816 
L 116.500769 161.898176 
L 116.819993 163.553608 
L 117.777665 171.462425 
L 118.096889 173.039153 
L 118.416113 173.842449 
L 118.735337 173.831045 
L 119.054561 173.419761 
L 119.373785 172.624518 
L 120.012232 170.013423 
L 120.331456 169.487974 
L 120.65068 169.455688 
L 120.969904 169.691057 
L 121.289128 170.305206 
L 121.608352 171.167565 
L 121.927576 171.423687 
L 122.2468 170.773963 
L 122.885248 168.929056 
L 123.204472 168.965488 
L 123.842919 170.320179 
L 124.162143 170.595905 
L 124.800591 170.116146 
L 125.119815 170.185479 
L 126.077487 171.58955 
L 126.715935 172.892386 
L 127.035159 173.291159 
L 127.354383 173.45552 
L 127.673606 173.252805 
L 128.631278 171.929789 
L 129.269726 171.420383 
L 129.58895 170.615562 
L 130.546622 166.432035 
L 131.504293 161.803879 
L 132.142741 159.165069 
L 133.100413 156.60184 
L 133.419637 156.087704 
L 133.738861 155.837703 
L 134.377309 155.516683 
L 135.015757 154.651421 
L 135.33498 154.435823 
L 135.973428 154.611746 
L 136.292652 154.455528 
L 136.9311 154.290745 
L 137.569548 153.084149 
L 138.207996 151.628889 
L 138.52722 151.447845 
L 138.846444 151.653222 
L 139.165668 151.711185 
L 139.484891 151.228569 
L 140.123339 149.668562 
L 140.442563 149.326499 
L 140.761787 149.420624 
L 141.081011 149.785109 
L 141.400235 150.381776 
L 142.677131 153.803753 
L 142.996355 155.6792 
L 143.634802 160.019762 
L 143.954026 160.328888 
L 144.592474 159.0631 
L 145.86937 156.453921 
L 146.188594 156.337952 
L 146.507818 156.394003 
L 146.827042 156.858805 
L 147.146265 157.741541 
L 148.103937 161.41654 
L 148.423161 161.307576 
L 148.742385 160.562976 
L 149.700057 157.459251 
L 150.019281 156.873535 
L 150.338505 156.712708 
L 150.657729 156.690571 
L 150.976953 156.376139 
L 151.296176 156.251757 
L 151.6154 156.889498 
L 152.573072 160.753921 
L 152.892296 161.174811 
L 153.21152 160.687118 
L 154.488416 155.10214 
L 154.80764 154.557816 
L 155.765311 154.121725 
L 156.084535 153.668569 
L 156.403759 152.757921 
L 158.638327 143.324346 
L 158.95755 142.804914 
L 159.915222 142.86574 
L 160.234446 143.186374 
L 160.55367 144.408153 
L 161.192118 147.958654 
L 161.830566 150.262161 
L 162.14979 150.910272 
L 162.469014 150.849931 
L 163.745909 147.71093 
L 164.384357 147.069231 
L 165.342029 146.830502 
L 165.661253 147.01715 
L 165.980477 147.390724 
L 166.299701 147.496803 
L 166.938148 147.214427 
L 167.257372 146.902919 
L 167.576596 146.303871 
L 168.534268 143.392257 
L 168.853492 143.579291 
L 169.811164 147.800046 
L 170.130388 148.131945 
L 172.045731 146.760712 
L 172.364955 146.016123 
L 173.003403 144.024492 
L 173.322627 143.308992 
L 174.280299 142.051499 
L 175.23797 138.069581 
L 175.557194 137.561137 
L 176.514866 137.005592 
L 177.153314 136.262331 
L 177.472538 136.304478 
L 177.791762 136.941979 
L 178.110986 138.475822 
L 178.43021 140.789286 
L 179.068657 147.46576 
L 179.387881 149.093681 
L 179.707105 147.893874 
L 180.345553 143.386959 
L 180.664777 142.787604 
L 180.984001 143.531592 
L 181.622449 148.211895 
L 181.941673 148.470987 
L 182.899344 143.751791 
L 183.218568 144.336502 
L 183.537792 147.626645 
L 184.17624 164.771413 
L 184.814688 177.849522 
L 185.133912 181.61935 
L 185.77236 186.047807 
L 186.091584 186.904873 
L 186.410808 186.596225 
L 186.730031 189.391566 
L 187.049255 193.877546 
L 187.368479 195.023433 
L 188.006927 193.060385 
L 188.326151 193.229785 
L 188.645375 194.589055 
L 188.964599 195.256761 
L 189.283823 195.127619 
L 189.603047 194.350922 
L 190.241495 188.932602 
L 191.199166 184.941824 
L 192.476062 175.941192 
L 193.433734 172.599793 
L 193.752958 173.349364 
L 194.072182 177.466531 
L 194.391406 183.320795 
L 194.710629 184.424777 
L 195.349077 176.389018 
L 195.668301 176.07079 
L 196.306749 183.36135 
L 196.625973 183.89929 
L 196.945197 183.744706 
L 197.264421 180.722114 
L 197.902869 168.528471 
L 198.222093 167.05691 
L 198.541316 163.038488 
L 199.179764 146.406024 
L 199.498988 141.708346 
L 199.818212 138.895785 
L 200.45666 136.067664 
L 200.775884 135.768178 
L 201.414332 137.764226 
L 201.733556 137.637906 
L 202.05278 137.895435 
L 202.691227 141.006118 
L 203.010451 144.907405 
L 203.648899 158.983158 
L 204.287347 170.144319 
L 204.606571 176.432174 
L 204.925795 180.184303 
L 205.245019 181.700524 
L 205.564243 184.219729 
L 205.883467 188.300362 
L 206.202691 188.299779 
L 207.160362 172.87619 
L 207.79881 170.263274 
L 208.756482 164.263378 
L 209.075706 163.844644 
L 209.39493 164.618916 
L 210.352601 169.093274 
L 211.310273 171.518973 
L 211.629497 172.70075 
L 211.948721 173.369527 
L 212.267945 173.210423 
L 212.906393 171.771971 
L 213.544841 170.049126 
L 213.864065 169.781445 
L 214.183288 170.355752 
L 214.502512 172.463732 
L 214.821736 177.731434 
L 216.098632 209.167126 
L 216.417856 212.854054 
L 216.73708 214.591123 
L 217.056304 214.777935 
L 217.375528 213.712955 
L 217.694752 211.103634 
L 218.013976 205.71802 
L 218.971647 175.384424 
L 219.290871 172.874027 
L 219.610095 172.034939 
L 219.929319 172.470996 
L 220.248543 173.33691 
L 220.567767 171.46731 
L 221.206215 162.038547 
L 221.525439 159.278949 
L 221.844663 157.65939 
L 222.48311 152.161427 
L 222.802334 151.364427 
L 223.121558 152.806859 
L 223.760006 157.109573 
L 224.717678 162.089496 
L 225.356126 166.861753 
L 226.633021 181.511502 
L 226.952245 182.414645 
L 227.271469 180.873141 
L 227.590693 180.574455 
L 227.909917 181.167299 
L 228.229141 178.516314 
L 228.548365 174.734134 
L 229.186813 172.245293 
L 230.144484 163.230871 
L 230.463708 164.09382 
L 230.782932 167.949712 
L 231.102156 170.311394 
L 231.42138 168.929805 
L 232.059828 160.507594 
L 232.379052 160.003198 
L 232.698276 165.606314 
L 233.336724 182.026224 
L 233.655948 181.88241 
L 234.294395 169.625458 
L 234.613619 167.915383 
L 234.932843 169.951217 
L 235.252067 169.124895 
L 235.571291 164.836014 
L 235.890515 162.839161 
L 236.209739 167.448044 
L 236.848187 183.267343 
L 237.167411 185.966712 
L 237.486635 187.267695 
L 237.805859 182.738471 
L 238.76353 152.99699 
L 239.401978 142.189134 
L 239.721202 138.752283 
L 240.040426 137.907547 
L 240.35965 141.989557 
L 241.317322 169.941938 
L 241.636546 170.15539 
L 241.955769 167.602755 
L 242.594217 160.667657 
L 242.913441 158.89834 
L 243.232665 158.089363 
L 243.551889 154.915049 
L 244.828785 129.587927 
L 245.148009 126.495416 
L 245.467233 124.623704 
L 245.786456 124.350687 
L 246.10568 124.706397 
L 246.424904 123.966383 
L 247.382576 119.256672 
L 247.7018 119.530104 
L 248.021024 119.628158 
L 248.340248 117.914998 
L 248.978696 112.204624 
L 249.617144 103.529062 
L 249.936367 101.385833 
L 250.574815 99.5139 
L 251.213263 96.188286 
L 251.532487 95.735678 
L 251.851711 96.278538 
L 252.170935 98.703971 
L 252.809383 108.817194 
L 253.128607 110.556717 
L 253.447831 109.355901 
L 253.767054 112.847854 
L 254.405502 131.514115 
L 254.724726 135.527128 
L 255.04395 136.194446 
L 255.363174 134.461768 
L 256.001622 127.601982 
L 256.320846 130.379576 
L 256.959294 139.144184 
L 257.597741 144.875059 
L 257.916965 145.75363 
L 258.236189 139.283952 
L 259.193861 105.374727 
L 260.470757 80.776096 
L 260.789981 76.774154 
L 262.705324 61.221757 
L 263.662996 51.197335 
L 263.98222 52.385846 
L 264.301444 55.548819 
L 264.620668 56.713015 
L 264.939892 56.21799 
L 265.259116 56.984018 
L 265.578339 58.321439 
L 265.897563 57.707701 
L 266.216787 56.114635 
L 266.536011 56.154357 
L 266.855235 57.214823 
L 267.174459 57.273522 
L 267.493683 57.619766 
L 267.812907 59.468359 
L 268.132131 59.69703 
L 268.770579 55.468299 
L 269.409026 57.871828 
L 269.72825 57.416808 
L 270.047474 57.316983 
L 270.366698 57.945755 
L 270.685922 56.866527 
L 271.005146 55.251888 
L 271.32437 55.493501 
L 271.643594 56.233578 
L 271.962818 55.92914 
L 272.282042 55.908314 
L 272.601266 56.581799 
L 272.92049 56.164909 
L 273.239714 54.881349 
L 273.558937 54.6483 
L 273.878161 54.935196 
L 274.197385 53.354297 
L 274.835833 47.80442 
L 275.474281 44.432898 
L 275.793505 42.506309 
L 276.112729 41.884757 
L 276.751177 43.738156 
L 277.070401 43.303864 
L 277.389624 43.079627 
L 277.708848 44.22101 
L 278.028072 44.743868 
L 278.66652 42.059059 
L 279.304968 43.921103 
L 279.943416 41.99734 
L 280.581864 44.800391 
L 280.901088 43.392124 
L 281.220311 41.394519 
L 281.858759 39.99477 
L 282.177983 40.141856 
L 282.497207 43.631465 
L 282.816431 52.952233 
L 283.135655 70.822699 
L 283.774103 134.950247 
L 284.093327 165.858444 
L 284.412551 181.038458 
L 284.731775 184.082959 
L 285.050999 182.737186 
L 286.00867 174.189927 
L 287.285566 163.583494 
L 288.562462 155.096639 
L 289.520133 151.488612 
L 291.754701 143.759385 
L 293.031596 141.047601 
L 293.670044 139.519298 
L 294.308492 138.55803 
L 295.585388 136.175728 
L 296.223836 134.636532 
L 296.862284 134.217999 
L 297.500731 133.107792 
L 298.139179 132.711396 
L 298.458403 132.270928 
L 299.416075 130.418259 
L 300.054523 129.321694 
L 300.692971 128.888009 
L 301.012194 128.765248 
L 301.331418 128.41176 
L 302.608314 125.389692 
L 302.927538 125.044672 
L 303.88521 124.925196 
L 304.523658 123.628461 
L 305.162105 121.948123 
L 306.119777 120.74257 
L 307.077449 120.118662 
L 307.715897 119.430897 
L 308.354345 118.689681 
L 309.63124 117.058179 
L 310.269688 115.964599 
L 310.588912 115.779714 
L 310.908136 115.75142 
L 311.546584 115.968522 
L 312.504256 115.720407 
L 313.781151 114.259665 
L 314.100375 114.025601 
L 314.419599 114.171277 
L 314.738823 114.555208 
L 315.058047 114.517595 
L 316.015719 112.955033 
L 316.654167 111.727716 
L 316.97339 111.757596 
L 317.292614 112.147741 
L 317.611838 112.241288 
L 318.250286 111.496802 
L 318.888734 111.182021 
L 319.527182 110.533021 
L 320.484854 108.960278 
L 320.804077 108.891136 
L 321.123301 109.089841 
L 321.761749 109.687107 
L 322.080973 109.73735 
L 322.400197 109.614562 
L 322.719421 109.260768 
L 323.357869 108.364053 
L 323.996317 108.592219 
L 324.315541 108.442353 
L 324.953988 107.746767 
L 325.592436 106.983353 
L 326.550108 106.013474 
L 327.188556 105.908895 
L 327.827004 106.446606 
L 328.146228 106.265099 
L 329.423123 104.03372 
L 329.742347 103.224493 
L 331.338467 97.594074 
L 331.657691 97.130304 
L 332.296139 96.925475 
L 332.615362 96.667176 
L 332.934586 96.582543 
L 333.573034 97.147106 
L 333.892258 97.011523 
L 334.530706 96.284409 
L 335.169154 96.045561 
L 335.488378 95.780654 
L 335.807602 95.691386 
L 336.446049 95.723942 
L 336.765273 95.65087 
L 337.084497 95.692162 
L 337.403721 96.287844 
L 337.722945 97.929427 
L 338.361393 104.946136 
L 338.680617 104.593146 
L 339.638289 92.811568 
L 339.957513 91.358121 
L 340.915184 88.862182 
L 341.234408 88.322298 
L 341.553632 88.221487 
L 341.872856 88.301886 
L 342.19208 87.970657 
L 342.511304 87.071413 
L 343.7882 82.129606 
L 344.426647 80.517811 
L 345.384319 77.949461 
L 346.661215 75.408533 
L 346.980439 75.429728 
L 347.299663 78.843743 
L 347.938111 92.921789 
L 348.257334 95.514591 
L 348.895782 92.023964 
L 349.215006 92.912744 
L 349.53423 91.992321 
L 349.853454 87.35643 
L 350.172678 85.436725 
L 350.491902 90.583336 
L 351.13035 105.225445 
L 351.449574 105.444167 
L 352.088022 95.074601 
L 352.407245 95.359616 
L 352.726469 97.513879 
L 353.045693 95.195669 
L 353.684141 82.727463 
L 354.003365 83.721359 
L 354.641813 93.031594 
L 354.961037 93.338413 
L 355.280261 89.093274 
L 355.918709 74.244084 
L 356.237932 70.085742 
L 356.557156 69.951126 
L 356.87638 70.833115 
L 357.514828 68.411066 
L 357.834052 70.060885 
L 358.153276 72.568863 
L 358.4725 71.442083 
L 358.791724 68.251049 
L 359.110948 67.376452 
L 359.749396 71.677581 
L 360.06862 68.791574 
L 360.707067 59.063149 
L 361.026291 58.351004 
L 361.345515 59.276187 
L 361.664739 58.490717 
L 362.303187 53.094745 
L 363.260859 43.263955 
L 363.580083 41.546154 
L 363.899307 41.100434 
L 364.21853 41.295824 
L 364.537754 41.173405 
L 365.176202 39.888279 
L 365.495426 39.590353 
L 365.81465 39.010306 
L 366.133874 38.084542 
L 366.453098 37.637574 
L 366.772322 38.299437 
L 367.091546 39.331288 
L 368.368441 41.606252 
L 368.687665 41.697114 
L 369.326113 41.686213 
L 369.645337 42.209938 
L 369.964561 43.688341 
L 370.922233 52.407226 
L 371.241457 52.865049 
L 371.560681 52.159816 
L 372.199128 49.403886 
L 372.518352 49.416273 
L 373.476024 55.636063 
L 373.795248 55.501523 
L 374.114472 55.028169 
L 374.433696 55.043844 
L 374.75292 56.817548 
L 375.391368 66.330101 
L 376.668263 90.038718 
L 376.987487 90.906055 
L 377.306711 89.437291 
L 377.625935 85.780035 
L 378.583607 66.408405 
L 378.902831 64.413703 
L 379.222055 65.867415 
L 379.541279 72.507223 
L 380.49895 110.313297 
L 380.818174 103.309255 
L 381.456622 76.952286 
L 382.09507 60.176595 
L 382.733518 49.665948 
L 383.371966 44.434678 
L 384.010413 41.688266 
L 385.287309 34.226341 
L 385.606533 33.365776 
L 385.925757 33.279302 
L 386.244981 33.505559 
L 386.564205 33.520572 
L 386.883429 33.121163 
L 387.521877 31.611222 
L 387.8411 31.469921 
L 388.160324 31.628143 
L 389.43722 31.270607 
L 390.714116 29.006015 
L 391.352564 27.249428 
L 391.671787 26.773855 
L 391.991011 26.903818 
L 392.948683 28.456357 
L 393.267907 28.240437 
L 393.906355 27.523374 
L 394.544803 27.125301 
L 395.183251 26.935776 
L 396.140922 24.790921 
L 396.460146 23.625155 
L 397.098594 20.616006 
L 398.056266 17.673377 
L 398.37549 17.375009 
L 398.694714 17.449968 
L 399.333162 16.764909 
L 399.652385 16.943047 
L 399.971609 17.290567 
L 400.290833 17.130481 
L 400.929281 15.76115 
L 401.248505 15.587524 
L 401.886953 15.504232 
L 402.206177 15.344974 
L 402.525401 15.021124 
L 403.483072 12.941751 
L 403.802296 12.727719 
L 404.12152 12.795524 
L 404.759968 13.422077 
L 405.079192 13.015046 
L 405.398416 12.394711 
L 405.71764 12.109091 
L 406.036864 12.443537 
L 406.356088 13.555954 
L 406.994536 17.170051 
L 407.31376 18.01398 
L 407.632983 18.061053 
L 407.952207 19.225728 
L 408.271431 23.949957 
L 408.590655 34.253953 
L 409.548327 87.737022 
L 409.867551 94.887372 
L 410.186775 95.904319 
L 410.505999 94.632097 
L 411.144447 90.015431 
L 411.782894 85.505567 
L 412.102118 84.367437 
L 412.421342 83.693544 
L 412.740566 83.586253 
L 413.05979 84.625705 
L 413.379014 87.723196 
L 413.698238 94.761695 
L 414.336686 121.935673 
L 414.65591 119.156853 
L 414.975134 108.877375 
L 415.294357 106.638935 
L 415.613581 109.912822 
L 415.932805 115.198528 
L 416.252029 125.202057 
L 416.571253 142.123568 
L 417.528925 204.820188 
L 417.848149 215.033423 
L 418.167373 220.3307 
L 418.486597 222.582255 
L 419.125045 224.605085 
L 419.444268 225.331411 
L 419.763492 225.583296 
L 420.721164 225.279336 
L 421.040388 224.457256 
L 421.678836 220.506941 
L 421.99806 219.929213 
L 422.636508 221.956679 
L 422.955732 221.313788 
L 423.274955 217.87906 
L 424.232627 194.21087 
L 424.551851 192.115346 
L 424.871075 183.534638 
L 425.509523 158.386131 
L 426.147971 145.200042 
L 426.467195 141.701536 
L 426.786419 139.664399 
L 427.105643 138.757625 
L 427.424866 139.183892 
L 427.74409 141.775253 
L 428.382538 151.350444 
L 428.701762 150.449849 
L 429.34021 138.484882 
L 429.978658 126.784236 
L 430.297882 123.482461 
L 430.617106 122.502156 
L 430.93633 123.170217 
L 431.574777 125.168889 
L 431.894001 126.391814 
L 432.213225 127.104494 
L 432.851673 127.223393 
L 433.170897 127.106282 
L 433.809345 126.426634 
L 434.447793 124.899493 
L 435.08624 123.371268 
L 435.724688 122.166266 
L 437.320808 116.195393 
L 437.959256 115.054683 
L 438.597704 114.54354 
L 438.916928 113.822034 
L 439.236151 112.753359 
L 439.555375 112.094388 
L 439.874599 112.164633 
L 440.193823 112.366624 
L 440.513047 112.37536 
L 441.470719 111.736932 
L 441.789943 111.24304 
L 442.428391 109.809624 
L 442.747615 109.454767 
L 443.066838 109.423766 
L 443.386062 109.701985 
L 443.705286 109.79031 
L 444.662958 108.83476 
L 445.301406 108.288554 
L 445.62063 108.254486 
L 445.939854 108.39811 
L 446.259078 108.156767 
L 447.535973 105.446904 
L 447.855197 105.447712 
L 448.493645 105.944621 
L 448.812869 105.834267 
L 449.451317 105.340904 
L 450.089765 104.6118 
L 450.408989 104.638456 
L 451.36666 105.142511 
L 452.005108 104.812871 
L 452.643556 104.382452 
L 453.601228 102.949643 
L 453.920452 102.942692 
L 454.5589 103.384791 
L 455.197347 104.261872 
L 455.516571 104.24551 
L 456.155019 103.78051 
L 456.474243 103.322596 
L 457.112691 102.133749 
L 457.751139 102.07919 
L 458.070363 101.840408 
L 458.389587 101.904832 
L 459.028034 102.591681 
L 459.347258 102.697327 
L 459.666482 102.669696 
L 459.985706 102.495741 
L 460.624154 101.693015 
L 460.943378 101.736578 
L 461.262602 102.034325 
L 461.581826 102.096034 
L 461.90105 101.740575 
L 462.858721 99.528161 
L 463.177945 99.127644 
L 463.816393 98.913362 
L 464.135617 98.577896 
L 465.093289 97.148913 
L 465.731737 96.674159 
L 466.050961 95.929754 
L 466.689408 93.80486 
L 467.008632 93.523796 
L 467.327856 94.034956 
L 467.966304 95.856 
L 468.285528 96.343533 
L 468.923976 96.581602 
L 469.2432 96.865072 
L 470.200872 97.207274 
L 470.520095 97.179308 
L 471.477767 95.993899 
L 472.116215 95.557459 
L 473.712335 93.744998 
L 474.031559 93.507685 
L 474.350783 93.634458 
L 474.670006 94.185172 
L 474.98923 94.999304 
L 475.308454 96.250972 
L 475.627678 98.741397 
L 475.946902 103.856665 
L 476.58535 120.195313 
L 477.223798 139.023164 
L 477.543022 143.736243 
L 477.862246 141.19976 
L 478.500693 127.261708 
L 479.139141 117.778759 
L 479.458365 118.12673 
L 480.096813 125.508421 
L 480.416037 125.514484 
L 480.735261 125.016452 
L 481.054485 123.989451 
L 483.289052 93.13123 
L 483.608276 93.868299 
L 483.9275 103.339603 
L 484.565948 142.277888 
L 484.885172 146.605889 
L 485.204396 147.982754 
L 485.52362 152.525143 
L 485.842844 153.546828 
L 486.162068 149.427684 
L 487.119739 127.332078 
L 487.438963 125.762684 
L 487.758187 123.175579 
L 488.396635 113.841878 
L 488.715859 110.678458 
L 489.035083 108.626909 
L 489.354307 107.349256 
L 489.673531 106.662805 
L 489.992755 106.453723 
L 490.311978 106.413031 
L 490.631202 106.521515 
L 490.950426 106.830395 
L 491.26965 106.854706 
L 491.908098 106.387127 
L 492.227322 105.884744 
L 493.184994 103.262263 
L 494.142666 100.134228 
L 494.461889 99.918569 
L 494.781113 100.780875 
L 496.058009 107.262079 
L 496.377233 108.393531 
L 496.696457 107.876255 
L 497.654129 102.959442 
L 497.973353 102.012446 
L 498.292576 101.870413 
L 499.250248 104.160902 
L 499.569472 103.647534 
L 499.888696 102.818718 
L 500.20792 102.544736 
L 500.527144 102.696231 
L 500.846368 102.083133 
L 501.165592 100.836509 
L 501.484816 100.260178 
L 501.80404 100.2923 
L 502.123263 99.89671 
L 502.442487 99.096902 
L 502.761711 98.987121 
L 503.080935 100.146336 
L 503.719383 103.045683 
L 504.038607 103.000709 
L 505.315503 98.183574 
L 506.273174 96.188653 
L 506.592398 96.176859 
L 506.911622 96.317501 
L 507.230846 96.256447 
L 507.55007 95.964873 
L 508.507742 94.78942 
L 509.14619 94.426404 
L 510.423085 92.653237 
L 510.742309 91.555278 
L 511.061533 90.950935 
L 511.380757 91.185675 
L 511.699981 91.949793 
L 512.019205 93.183526 
L 512.338429 95.048829 
L 512.657653 98.426381 
L 512.976877 104.910845 
L 513.934548 130.268183 
L 514.253772 134.9623 
L 514.572996 137.515584 
L 515.211444 139.961351 
L 515.530668 141.639206 
L 515.849892 141.805766 
L 518.403683 120.401633 
L 519.361355 114.665202 
L 519.680579 113.414802 
L 519.999803 112.676296 
L 520.319027 112.311274 
L 520.638251 112.357663 
L 520.957475 112.206566 
L 521.276699 110.735314 
L 521.915146 106.584767 
L 522.23437 105.099351 
L 522.553594 104.194207 
L 523.83049 102.089278 
L 524.149714 102.013479 
L 524.468938 101.6918 
L 525.745833 98.990494 
L 526.384281 98.604965 
L 527.022729 98.385952 
L 527.341953 98.41469 
L 527.661177 98.601092 
L 527.980401 98.612633 
L 528.618849 98.26321 
L 529.257297 97.568968 
L 530.214968 96.51531 
L 530.853416 96.637123 
L 531.17264 96.19453 
L 532.130312 94.313367 
L 532.76876 93.43267 
L 533.726431 91.868916 
L 534.045655 91.397317 
L 534.364879 91.134488 
L 535.003327 91.298566 
L 536.280223 91.73769 
L 536.599447 91.864283 
L 536.918671 91.789321 
L 537.237895 91.897941 
L 537.876342 92.870963 
L 538.195566 92.722899 
L 538.51479 91.937597 
L 539.153238 89.948099 
L 539.472462 89.696987 
L 539.791686 89.692923 
L 540.11091 89.513457 
L 540.430134 88.86359 
L 541.387806 86.03119 
L 542.026253 84.882465 
L 542.345477 84.440329 
L 542.664701 84.286579 
L 543.303149 84.445495 
L 543.941597 84.754415 
L 544.260821 84.691785 
L 544.899269 83.970535 
L 545.537716 83.33677 
L 546.176164 82.813198 
L 546.814612 82.754462 
L 547.133836 82.903776 
L 547.45306 83.246813 
L 547.772284 84.366065 
L 548.091508 87.000238 
L 548.410732 91.762222 
L 549.687627 118.930555 
L 550.006851 122.571231 
L 550.326075 120.533732 
L 550.964523 102.324002 
L 551.283747 97.528775 
L 551.602971 97.939863 
L 551.922195 101.438426 
L 552.560643 112.315116 
L 553.199091 116.411723 
L 553.837538 122.82845 
L 554.79521 129.678093 
L 555.114434 127.758204 
L 555.433658 125.131963 
L 555.752882 126.656985 
L 556.072106 129.479088 
L 556.39133 128.202498 
L 557.668225 109.573918 
L 558.306673 107.477455 
L 558.625897 105.563047 
L 558.945121 105.499334 
L 559.264345 112.933096 
L 559.902793 150.775776 
L 560.222017 170.456852 
L 561.179689 202.482578 
L 561.498912 210.450172 
L 561.818136 212.178955 
L 562.13736 207.433816 
L 562.775808 179.907219 
L 563.095032 165.785904 
L 563.414256 157.979293 
L 563.73348 160.16076 
L 564.052704 170.416688 
L 565.010376 212.575821 
L 565.329599 218.691382 
L 565.648823 221.828305 
L 565.968047 223.67791 
L 566.287271 224.692929 
L 566.606495 225.142323 
L 566.925719 225.238268 
L 567.244943 225.026063 
L 567.564167 224.405517 
L 567.883391 223.293915 
L 568.202615 221.586962 
L 569.160286 213.648422 
L 569.47951 214.703364 
L 570.117958 221.567029 
L 570.437182 223.257509 
L 570.756406 223.70465 
L 571.07563 223.540098 
L 571.394854 223.527225 
L 572.352526 224.635374 
L 572.67175 224.577725 
L 573.310197 223.643296 
L 573.948645 223.184567 
L 574.267869 223.186549 
L 574.587093 223.383554 
L 574.906317 223.237796 
L 575.225541 221.839393 
L 575.544765 218.107576 
L 577.140884 185.021712 
L 577.460108 176.014225 
L 577.779332 171.842941 
L 578.098556 174.743608 
L 579.056228 200.558317 
L 579.375452 203.092424 
L 579.694676 203.273017 
L 580.333124 201.484526 
L 580.652348 200.352999 
L 581.290795 196.683642 
L 582.248467 189.667819 
L 582.886915 183.671256 
L 583.525363 180.148463 
L 583.844587 179.353451 
L 584.163811 179.924986 
L 584.802259 182.207706 
L 585.121482 182.053081 
L 585.440706 180.965398 
L 586.717602 175.285234 
L 587.35605 173.687083 
L 587.675274 173.184197 
L 588.313722 171.372275 
L 588.952169 169.471632 
L 590.229065 165.051439 
L 590.548289 164.658893 
L 590.867513 164.792456 
L 591.186737 165.725455 
L 591.825185 172.623458 
L 592.144409 172.383604 
L 592.782856 167.85412 
L 593.10208 166.892716 
L 593.421304 166.460759 
L 593.740528 165.092709 
L 594.059752 163.193991 
L 594.378976 162.601613 
L 594.6982 163.666692 
L 595.655872 169.612038 
L 595.975096 169.725152 
L 596.29432 168.971711 
L 596.613544 167.626623 
L 596.932767 165.685622 
L 597.251991 164.545219 
L 597.571215 165.979919 
L 598.528887 178.260727 
L 598.848111 178.111939 
L 599.167335 175.799971 
L 599.486559 175.489588 
L 599.805783 175.982916 
L 600.125007 173.728409 
L 600.763454 163.702224 
L 601.401902 152.770911 
L 601.721126 151.361517 
L 602.04035 152.190181 
L 602.359574 154.596814 
L 602.678798 156.143148 
L 602.998022 153.984735 
L 603.317246 150.04624 
L 603.63647 147.514546 
L 603.955694 146.455948 
L 604.274918 146.160378 
L 604.913365 146.963688 
L 605.232589 146.549445 
L 605.551813 145.260242 
L 605.871037 144.800165 
L 606.190261 146.213428 
L 607.147933 154.196592 
L 607.786381 152.93766 
L 608.105605 153.659006 
L 609.063276 160.109621 
L 609.3825 160.291366 
L 610.020948 159.069693 
L 610.340172 161.294806 
L 611.297844 174.906756 
L 611.617068 175.033904 
L 612.255516 168.766178 
L 612.893963 160.160502 
L 613.213187 158.891139 
L 613.532411 160.050579 
L 613.851635 159.560379 
L 616.086203 135.52286 
L 616.72465 131.783655 
L 617.043874 130.932707 
L 617.363098 131.2949 
L 618.001546 133.123883 
L 618.32077 133.561805 
L 618.639994 134.982297 
L 618.959218 137.845757 
L 619.278442 142.452798 
L 619.91689 159.592863 
L 620.236114 168.023544 
L 620.555337 172.892211 
L 620.874561 174.605304 
L 621.193785 174.39217 
L 621.513009 172.782979 
L 622.470681 165.207985 
L 623.109129 162.708443 
L 624.066801 161.214158 
L 624.386024 160.80537 
L 624.705248 161.6265 
L 625.343696 165.821167 
L 625.66292 169.703293 
L 625.982144 177.12397 
L 626.620592 195.226909 
L 626.939816 198.476807 
L 627.25904 197.824626 
L 627.578264 193.172716 
L 628.216712 177.294622 
L 629.812831 121.549473 
L 630.132055 114.839193 
L 630.451279 111.62575 
L 630.770503 111.23286 
L 631.089727 112.634128 
L 631.408951 115.440138 
L 631.728175 120.345075 
L 633.00507 151.206846 
L 633.324294 155.814655 
L 633.643518 157.613791 
L 633.962742 156.823058 
L 634.920414 153.285567 
L 635.239638 153.012858 
L 635.558862 155.127066 
L 636.197309 163.10094 
L 636.516533 162.212212 
L 637.154981 151.121345 
L 637.474205 149.560054 
L 637.793429 150.437615 
L 638.431877 154.050647 
L 638.751101 157.440629 
L 639.389549 167.560092 
L 639.708773 169.815785 
L 640.027997 170.196547 
L 640.34722 170.77438 
L 640.666444 170.139971 
L 640.985668 170.93752 
L 641.624116 182.879204 
L 641.94334 185.994461 
L 642.262564 184.780704 
L 642.901012 173.999145 
L 643.220236 173.218061 
L 643.53946 177.634975 
L 644.177907 190.942866 
L 644.497131 192.029795 
L 644.816355 187.642643 
L 645.774027 169.720272 
L 646.412475 162.519273 
L 647.689371 152.070971 
L 648.008594 149.796479 
L 648.327818 148.390336 
L 648.647042 147.81945 
L 648.966266 148.234817 
L 649.604714 150.744513 
L 649.923938 150.659502 
L 650.243162 149.957906 
L 650.562386 149.990609 
L 650.88161 152.455014 
L 651.520058 161.182749 
L 651.839282 162.105102 
L 652.158505 158.5632 
L 652.796953 141.501921 
L 653.116177 137.168313 
L 653.435401 136.571366 
L 654.073849 137.588581 
L 654.393073 137.580343 
L 654.712297 136.877445 
L 655.669969 133.859491 
L 655.989192 133.814728 
L 656.308416 134.451416 
L 656.62764 136.280426 
L 657.266088 141.347023 
L 657.585312 142.141102 
L 658.22376 141.981139 
L 658.862208 142.465685 
L 659.181432 142.85904 
L 659.819879 144.432255 
L 660.139103 144.252552 
L 660.458327 144.215942 
L 661.096775 145.70074 
L 661.735223 146.293122 
L 662.054447 146.189956 
L 662.373671 144.831837 
L 662.692895 141.787813 
L 663.331343 132.003618 
L 663.650567 130.315733 
L 663.96979 132.283154 
L 664.289014 135.470677 
L 664.608238 135.496118 
L 664.927462 134.053456 
L 665.246686 136.979483 
L 665.885134 145.571631 
L 666.523582 153.705556 
L 666.842806 154.620067 
L 667.16203 153.213394 
L 668.119701 144.093496 
L 668.438925 143.032072 
L 668.758149 139.22458 
L 669.396597 128.47326 
L 670.035045 125.021613 
L 670.673493 116.553067 
L 670.992717 114.230495 
L 671.631165 107.566278 
L 671.950388 108.909071 
L 672.269612 114.943935 
L 672.588836 123.894618 
L 673.546508 157.719366 
L 673.865732 157.434198 
L 674.50418 141.077563 
L 674.823404 143.355241 
L 675.461852 166.542117 
L 675.781075 167.070478 
L 676.419523 157.436184 
L 676.738747 156.181542 
L 677.057971 158.389334 
L 677.696419 175.160909 
L 678.015643 177.668683 
L 678.334867 174.439903 
L 678.654091 172.780838 
L 678.973315 175.482546 
L 679.611762 188.223145 
L 679.930986 188.718287 
L 680.25021 183.227033 
L 681.84633 146.54342 
L 682.165554 143.481983 
L 682.484778 142.302161 
L 682.804002 141.816117 
L 683.123226 140.533104 
L 683.761673 136.573152 
L 684.080897 136.021144 
L 684.400121 138.03338 
L 684.719345 143.980443 
L 686.315465 197.652128 
L 686.634689 195.4666 
L 687.59236 168.749631 
L 687.911584 165.993006 
L 688.230808 164.602639 
L 688.550032 163.92209 
L 688.869256 164.260843 
L 689.18848 165.358305 
L 689.826928 171.132385 
L 690.146152 171.386595 
L 690.7846 166.964868 
L 691.742271 163.231405 
L 692.061495 163.044666 
L 692.699943 167.160291 
L 693.019167 167.308397 
L 693.338391 166.920774 
L 693.657615 168.337442 
L 693.976839 168.653064 
L 694.934511 152.135548 
L 695.572958 146.868712 
L 696.211406 134.337399 
L 696.53063 131.604511 
L 696.849854 131.032746 
L 697.169078 130.039225 
L 697.488302 128.154871 
L 697.807526 127.433739 
L 698.12675 129.427755 
L 698.445974 134.027032 
L 699.084422 148.175479 
L 699.403645 150.948256 
L 700.042093 143.474056 
L 700.361317 143.995523 
L 700.680541 146.641066 
L 700.999765 147.403411 
L 701.957437 141.292028 
L 702.276661 141.499614 
L 703.234332 147.652277 
L 703.553556 147.99572 
L 703.87278 147.305977 
L 704.830452 140.456114 
L 705.149676 141.422793 
L 705.4689 143.509136 
L 705.788124 144.546513 
L 706.426572 144.24144 
L 706.745796 143.59602 
L 707.384243 139.353189 
L 707.703467 138.377949 
L 708.022691 138.346225 
L 708.341915 139.032772 
L 708.661139 140.131099 
L 708.980363 140.477964 
L 709.299587 139.816601 
L 709.618811 140.567892 
L 709.938035 144.55841 
L 710.576483 156.858627 
L 711.21493 179.233768 
L 711.534154 181.443049 
L 712.172602 165.990927 
L 713.130274 157.383282 
L 715.364841 119.157979 
L 715.684065 116.934126 
L 716.003289 115.622168 
L 716.322513 115.443748 
L 716.960961 117.174117 
L 717.280185 116.535615 
L 717.918633 112.791828 
L 718.237857 110.021629 
L 719.195528 96.220268 
L 719.514752 96.567002 
L 720.1532 105.736051 
L 720.472424 105.220426 
L 720.791648 102.819206 
L 721.110872 104.127044 
L 721.74932 113.885213 
L 722.387768 121.727661 
L 723.026215 134.862711 
L 723.345439 138.178449 
L 723.664663 137.718147 
L 724.941559 129.347678 
L 725.580007 127.705116 
L 725.899231 125.217467 
L 726.856902 114.611958 
L 727.49535 109.023251 
L 728.133798 101.274741 
L 728.453022 99.448077 
L 728.772246 98.477243 
L 729.729918 93.789797 
L 730.049142 93.539907 
L 730.68759 94.437672 
L 731.006813 94.957862 
L 731.645261 99.552494 
L 731.964485 99.698833 
L 732.283709 100.399025 
L 732.602933 104.086154 
L 732.922157 106.403489 
L 733.241381 105.291297 
L 733.560605 105.480964 
L 733.879829 107.272306 
L 734.518277 106.970097 
L 734.8375 108.51849 
L 735.156724 107.846356 
L 735.475948 104.636355 
L 735.795172 103.04979 
L 736.114396 102.547854 
L 737.072068 96.353389 
L 738.02974 81.829547 
L 738.348964 82.586535 
L 739.306635 99.114149 
L 739.625859 96.487133 
L 739.945083 94.790006 
L 740.264307 95.113726 
L 740.583531 93.826342 
L 741.221979 87.35493 
L 742.179651 83.454831 
L 742.818098 78.50464 
L 743.456546 75.882731 
L 744.094994 74.035499 
L 744.414218 73.625291 
L 745.37189 72.965364 
L 745.691114 73.075224 
L 746.010338 74.20466 
L 746.329562 77.307451 
L 747.287233 95.440186 
L 747.606457 96.910908 
L 747.925681 97.619038 
L 748.244905 99.581041 
L 748.883353 107.498196 
L 749.521801 117.212344 
L 749.841025 119.117517 
L 750.160249 119.180651 
L 750.479473 119.744482 
L 750.798696 122.547078 
L 751.437144 130.237799 
L 751.756368 130.977302 
L 752.394816 125.247166 
L 752.71404 125.323509 
L 753.990936 129.582496 
L 754.31016 130.008468 
L 754.948607 130.318498 
L 755.906279 131.547741 
L 756.544727 131.737521 
L 758.46007 133.11932 
L 759.098518 133.18242 
L 759.736966 133.077292 
L 760.05619 132.912221 
L 761.333086 131.612797 
L 762.609981 131.07776 
L 763.567653 131.564416 
L 763.886877 131.767144 
L 764.844549 132.813662 
L 765.163773 132.887965 
L 765.482997 132.785629 
L 766.121445 132.172096 
L 766.759892 132.177371 
L 768.356012 130.616394 
L 768.675236 130.952705 
L 768.99446 131.46027 
L 769.632908 131.951489 
L 769.952132 132.167067 
L 770.271355 132.07591 
L 770.590579 131.845245 
L 771.229027 131.662367 
L 772.186699 130.898616 
L 772.825147 130.614809 
L 773.782819 129.583649 
L 774.102043 129.459362 
L 774.421266 129.642331 
L 775.059714 130.521094 
L 775.378938 131.211251 
L 775.698162 131.563931 
L 776.33661 130.493034 
L 776.655834 130.456246 
L 777.294282 130.975401 
L 777.613506 130.935392 
L 777.93273 130.637929 
L 778.251953 130.152834 
L 778.571177 129.881875 
L 779.209625 130.031159 
L 779.528849 130.101351 
L 780.167297 129.684109 
L 780.805745 129.234825 
L 781.124969 129.25068 
L 781.763417 129.804346 
L 782.401864 130.579845 
L 782.721088 130.761604 
L 783.040312 130.603856 
L 783.67876 129.927075 
L 784.636432 129.238508 
L 785.594104 128.462134 
L 785.913328 128.245828 
L 786.232551 128.184358 
L 786.551775 128.248701 
L 787.828671 129.085748 
L 788.147895 129.114152 
L 788.786343 129.475027 
L 789.424791 130.092463 
L 790.063238 130.290196 
L 790.382462 130.676971 
L 790.701686 131.735612 
L 791.02091 134.176208 
L 791.340134 138.940787 
L 792.297806 169.232992 
L 792.61703 170.358918 
L 792.936254 169.445648 
L 793.255478 168.164494 
L 793.893925 164.242206 
L 794.213149 163.113479 
L 794.532373 162.412015 
L 794.851597 163.909291 
L 795.170821 167.89169 
L 795.809269 180.336783 
L 796.128493 179.747169 
L 796.447717 170.19717 
L 797.086165 146.018791 
L 798.043836 124.810766 
L 798.682284 117.94692 
L 799.320732 114.058115 
L 799.95918 111.206144 
L 800.916852 108.459218 
L 801.236076 108.082288 
L 801.5553 108.012015 
L 801.874523 107.794855 
L 802.193747 107.748645 
L 802.512971 107.851568 
L 803.151419 107.233529 
L 803.470643 108.323102 
L 803.789867 110.043296 
L 804.109091 110.262878 
L 804.109091 110.262878 
" clip-path="url(#p02316f4150)" style="fill: none; stroke: #1f77b4; stroke-width: 6; stroke-linecap: square"/>
   </g>
  </g>
 </g>
 <defs>
  <clipPath id="p02316f4150">
   <rect x="0" y="0" width="842.4" height="266.4"/>
  </clipPath>
 </defs>
</svg>
