<?xml version="1.0" encoding="utf-8" standalone="no"?>
<!DOCTYPE svg PUBLIC "-//W3C//DTD SVG 1.1//EN"
  "http://www.w3.org/Graphics/SVG/1.1/DTD/svg11.dtd">
<svg xmlns:xlink="http://www.w3.org/1999/xlink" width="842.4pt" height="266.4pt" viewBox="0 0 842.4 266.4" xmlns="http://www.w3.org/2000/svg" version="1.1">
 <metadata>
  <rdf:RDF xmlns:dc="http://purl.org/dc/elements/1.1/" xmlns:cc="http://creativecommons.org/ns#" xmlns:rdf="http://www.w3.org/1999/02/22-rdf-syntax-ns#">
   <cc:Work>
    <dc:type rdf:resource="http://purl.org/dc/dcmitype/StillImage"/>
    <dc:date>2025-07-06T16:21:16.386286</dc:date>
    <dc:format>image/svg+xml</dc:format>
    <dc:creator>
     <cc:Agent>
      <dc:title>Matplotlib v3.10.3, https://matplotlib.org/</dc:title>
     </cc:Agent>
    </dc:creator>
   </cc:Work>
  </rdf:RDF>
 </metadata>
 <defs>
  <style type="text/css">*{stroke-linejoin: round; stroke-linecap: butt}</style>
 </defs>
 <g id="figure_1">
  <g id="patch_1">
   <path d="M 0 266.4 
L 842.4 266.4 
L 842.4 0 
L 0 0 
L 0 266.4 
z
" style="fill: none"/>
  </g>
  <g id="axes_1">
   <g id="line2d_1">
    <path d="M 38.290909 99.009402 
L 38.610133 100.38601 
L 38.929357 100.991974 
L 39.248581 101.113391 
L 39.567805 100.807587 
L 39.887029 99.93018 
L 40.206253 98.066915 
L 41.163924 88.154844 
L 41.483148 86.275033 
L 41.802372 85.697053 
L 42.121596 86.148021 
L 42.44082 87.840854 
L 42.760044 91.5748 
L 43.079268 93.871922 
L 43.398492 94.06982 
L 43.717716 94.008883 
L 44.03694 93.660342 
L 44.675387 95.547437 
L 45.633059 89.757964 
L 45.952283 89.955728 
L 46.909955 94.249685 
L 47.548403 96.275445 
L 48.186851 100.053788 
L 48.506075 100.986139 
L 48.825298 101.431188 
L 49.144522 101.59906 
L 49.463746 101.569011 
L 49.78297 101.326854 
L 50.102194 100.75826 
L 50.421418 101.34173 
L 50.740642 103.35274 
L 51.059866 102.499895 
L 51.37909 98.380537 
L 51.698314 96.037589 
L 52.017538 97.858771 
L 52.336762 101.210018 
L 52.975209 103.851079 
L 53.613657 111.186854 
L 53.932881 113.579924 
L 54.252105 114.44385 
L 55.529001 99.883736 
L 55.848225 97.823693 
L 56.167449 99.02411 
L 57.444344 118.047286 
L 57.763568 120.354258 
L 58.082792 120.836584 
L 58.402016 119.721985 
L 59.040464 113.088533 
L 59.359688 111.425609 
L 59.998136 106.286249 
L 60.636583 104.917693 
L 60.955807 103.833155 
L 61.275031 101.858538 
L 61.594255 98.061556 
L 61.913479 95.890381 
L 62.232703 96.066879 
L 62.551927 96.927426 
L 64.148047 106.923508 
L 64.46727 107.61436 
L 64.786494 107.453421 
L 65.105718 104.617752 
L 65.424942 99.515485 
L 65.744166 96.725478 
L 66.06339 96.677423 
L 66.382614 97.601677 
L 67.340286 104.857938 
L 67.65951 104.53194 
L 67.978734 103.645786 
L 68.297957 103.528044 
L 68.617181 104.123125 
L 68.936405 103.965032 
L 69.894077 94.934466 
L 70.532525 86.733125 
L 70.851749 84.841158 
L 72.128645 73.447603 
L 72.767092 71.055677 
L 73.086316 70.932109 
L 74.363212 81.657379 
L 75.00166 92.941908 
L 75.320884 96.061482 
L 75.640108 96.368647 
L 75.959332 94.008425 
L 76.597779 84.602527 
L 77.555451 67.509891 
L 77.874675 68.269093 
L 78.513123 76.30171 
L 78.832347 76.88588 
L 79.151571 76.085881 
L 79.470795 77.017915 
L 79.790019 76.628118 
L 80.109242 74.732452 
L 80.428466 75.676771 
L 80.74769 78.159967 
L 81.066914 78.113581 
L 81.705362 72.633722 
L 82.024586 71.600832 
L 82.982258 77.377171 
L 83.301482 77.255898 
L 83.620706 77.672109 
L 84.578377 85.469758 
L 84.897601 86.292875 
L 85.216825 88.426248 
L 85.855273 96.506039 
L 86.174497 97.532441 
L 86.493721 96.440927 
L 86.812945 94.463107 
L 87.132169 94.159093 
L 87.451393 97.132305 
L 87.770617 103.039546 
L 88.728288 127.183365 
L 89.366736 135.571804 
L 89.68596 137.385514 
L 90.324408 139.190845 
L 90.643632 141.781783 
L 90.962856 145.676957 
L 91.28208 147.474554 
L 91.601304 148.023283 
L 91.920527 149.329176 
L 93.197423 159.483011 
L 93.516647 159.909836 
L 93.835871 159.718072 
L 94.155095 158.817181 
L 94.474319 158.528774 
L 94.793543 158.716684 
L 95.751215 155.597737 
L 96.070438 153.463547 
L 96.389662 152.908108 
L 97.02811 158.677844 
L 97.347334 158.992341 
L 98.305006 152.201993 
L 98.62423 153.587896 
L 99.262678 159.205617 
L 100.539573 165.99743 
L 100.858797 164.706676 
L 101.178021 161.568184 
L 101.497245 160.341024 
L 101.816469 160.445809 
L 102.135693 160.185058 
L 102.454917 159.43566 
L 103.093365 156.404848 
L 103.412589 156.186391 
L 103.731812 155.338327 
L 104.051036 153.460256 
L 104.37026 153.159384 
L 105.008708 155.65165 
L 105.327932 156.127567 
L 105.96638 152.449834 
L 106.285604 151.80066 
L 106.924052 148.632739 
L 107.243276 148.112213 
L 107.5625 148.390837 
L 108.200947 150.56419 
L 108.839395 149.357361 
L 109.158619 150.110623 
L 109.477843 152.606557 
L 110.116291 159.359694 
L 111.073963 165.832468 
L 111.393187 166.416953 
L 111.71241 167.708137 
L 112.031634 170.315636 
L 112.350858 171.976633 
L 112.670082 171.728389 
L 112.989306 169.453698 
L 113.30853 165.825554 
L 113.627754 164.371844 
L 113.946978 166.153174 
L 114.266202 166.769708 
L 114.585426 164.765581 
L 115.223874 156.985979 
L 115.543098 156.272251 
L 115.862321 156.71641 
L 116.181545 156.781204 
L 117.139217 161.301196 
L 117.458441 160.844653 
L 118.096889 156.5289 
L 118.416113 155.872934 
L 118.735337 156.186323 
L 119.373785 159.093585 
L 119.693008 159.566169 
L 120.012232 161.004863 
L 120.65068 166.78054 
L 121.289128 170.418707 
L 121.608352 171.336012 
L 121.927576 170.041615 
L 122.2468 167.671342 
L 122.566024 166.60001 
L 122.885248 166.321807 
L 123.204472 164.958425 
L 123.523695 161.866165 
L 123.842919 157.332014 
L 124.162143 154.456102 
L 124.800591 152.708255 
L 125.119815 151.264146 
L 125.439039 148.613416 
L 125.758263 146.998472 
L 126.077487 147.403795 
L 126.715935 145.700532 
L 127.035159 146.281685 
L 127.354383 145.050774 
L 128.631278 131.540963 
L 129.269726 127.47169 
L 129.58895 129.022901 
L 130.227398 141.557766 
L 130.546622 147.977848 
L 130.865846 151.63973 
L 131.18507 150.77841 
L 131.504293 148.481136 
L 132.142741 146.181501 
L 132.461965 145.0934 
L 132.781189 143.379159 
L 133.100413 140.229422 
L 133.419637 135.904042 
L 133.738861 133.601716 
L 134.058085 133.982387 
L 134.377309 133.731876 
L 134.696533 132.731905 
L 135.015757 132.257309 
L 135.33498 132.084014 
L 135.654204 132.130199 
L 135.973428 132.417672 
L 136.292652 133.082159 
L 136.9311 135.376255 
L 137.250324 134.595078 
L 137.569548 133.471991 
L 137.888772 133.223699 
L 138.207996 133.732975 
L 138.846444 136.710263 
L 139.165668 137.090049 
L 139.484891 136.558936 
L 139.804115 136.613121 
L 140.442563 141.439888 
L 140.761787 141.503539 
L 141.400235 137.09583 
L 141.719459 137.531252 
L 142.357907 140.48689 
L 142.677131 140.908658 
L 143.315578 136.411061 
L 143.634802 136.356039 
L 143.954026 135.043565 
L 144.27325 131.853972 
L 144.592474 130.522206 
L 144.911698 130.41949 
L 145.230922 131.497329 
L 146.507818 142.388406 
L 146.827042 141.74979 
L 147.146265 140.65335 
L 147.784713 143.193181 
L 148.103937 142.787731 
L 148.423161 140.667553 
L 148.742385 139.325542 
L 149.061609 139.875043 
L 149.380833 140.828541 
L 150.019281 144.40458 
L 150.338505 145.221587 
L 150.657729 145.472974 
L 150.976953 145.277433 
L 151.296176 144.542639 
L 151.934624 141.396167 
L 152.253848 140.992835 
L 152.573072 139.774294 
L 153.21152 135.42771 
L 153.530744 133.741399 
L 153.849968 131.310124 
L 154.169192 130.479905 
L 154.488416 130.858765 
L 154.80764 130.878623 
L 155.126863 130.548854 
L 155.446087 129.713761 
L 155.765311 129.726024 
L 156.403759 135.29033 
L 156.722983 134.734706 
L 157.361431 127.259355 
L 157.999879 131.34725 
L 158.319103 131.780243 
L 158.638327 134.036252 
L 159.276774 144.400625 
L 159.595998 146.920652 
L 159.915222 147.930294 
L 160.55367 151.155845 
L 160.872894 151.400743 
L 161.192118 152.250468 
L 162.14979 157.416388 
L 162.469014 156.939777 
L 162.788238 156.18926 
L 163.107461 154.810492 
L 163.426685 152.152506 
L 164.384357 146.804536 
L 164.703581 146.623746 
L 165.022805 148.286303 
L 165.661253 153.709558 
L 165.980477 154.789906 
L 166.299701 154.581317 
L 166.618925 154.732264 
L 166.938148 155.314015 
L 167.576596 157.454711 
L 167.89582 156.530445 
L 168.215044 155.139013 
L 168.853492 153.861804 
L 169.172716 155.119966 
L 170.130388 166.189964 
L 170.768835 170.256507 
L 171.088059 171.239536 
L 171.407283 171.712269 
L 172.045731 176.202787 
L 172.684179 181.078256 
L 173.003403 182.20377 
L 173.322627 182.754732 
L 173.641851 181.244314 
L 173.961075 178.706351 
L 174.280299 177.436489 
L 174.918746 172.299814 
L 175.23797 171.248657 
L 175.557194 169.691511 
L 176.195642 165.026421 
L 176.83409 164.904451 
L 177.153314 163.097756 
L 177.472538 162.177603 
L 177.791762 163.45651 
L 178.110986 164.044386 
L 178.43021 165.965742 
L 178.749433 170.12772 
L 179.068657 171.507519 
L 179.387881 170.756592 
L 179.707105 171.014309 
L 180.026329 170.655392 
L 180.345553 169.510383 
L 180.664777 170.532595 
L 181.303225 178.766341 
L 181.622449 182.877503 
L 181.941673 183.238296 
L 182.260897 180.019062 
L 182.580121 178.687708 
L 183.857016 185.460014 
L 184.17624 186.327189 
L 184.495464 185.072716 
L 184.814688 181.104312 
L 185.453136 168.418745 
L 186.091584 163.945132 
L 186.410808 163.235928 
L 187.368479 168.897402 
L 187.687703 168.819565 
L 188.006927 165.341921 
L 188.326151 160.316461 
L 188.645375 158.358304 
L 188.964599 158.542934 
L 189.603047 156.357704 
L 189.922271 156.45003 
L 190.560718 159.243092 
L 190.879942 159.768624 
L 191.199166 159.608896 
L 191.51839 158.688495 
L 191.837614 158.31982 
L 192.156838 160.075764 
L 192.795286 165.112634 
L 193.11451 165.530783 
L 193.433734 166.237238 
L 193.752958 167.565544 
L 194.710629 170.080797 
L 195.349077 173.102637 
L 195.668301 173.096785 
L 195.987525 173.45751 
L 196.625973 178.785182 
L 196.945197 179.279692 
L 197.264421 177.819088 
L 197.583645 175.46072 
L 197.902869 174.58503 
L 198.222093 174.778572 
L 198.541316 174.385769 
L 198.86054 173.221164 
L 199.818212 165.483382 
L 200.137436 165.479548 
L 200.45666 165.739831 
L 201.095108 163.408315 
L 201.414332 163.209632 
L 201.733556 163.950313 
L 202.05278 165.980059 
L 202.691227 175.307173 
L 203.010451 176.526474 
L 203.329675 174.490767 
L 203.648899 173.479787 
L 203.968123 174.76317 
L 204.287347 177.199892 
L 204.606571 178.446506 
L 204.925795 177.344628 
L 205.245019 175.120977 
L 205.564243 174.219599 
L 205.883467 174.214919 
L 206.202691 171.610818 
L 206.521914 166.924762 
L 206.841138 164.932116 
L 207.160362 166.439035 
L 207.479586 168.66308 
L 207.79881 169.160391 
L 208.118034 168.165768 
L 208.437258 168.703523 
L 209.075706 172.741193 
L 209.39493 172.906573 
L 210.352601 168.945071 
L 210.671825 166.338855 
L 210.991049 162.655511 
L 211.310273 161.396864 
L 211.629497 161.968663 
L 211.948721 161.146963 
L 212.267945 158.543812 
L 212.587169 158.171034 
L 212.906393 159.852625 
L 213.225617 159.141661 
L 213.544841 157.449425 
L 214.502512 157.443439 
L 214.821736 159.128586 
L 215.779408 166.448847 
L 216.417856 168.486583 
L 216.73708 167.475272 
L 217.056304 164.176421 
L 217.375528 162.27339 
L 217.694752 164.361598 
L 218.013976 167.933055 
L 218.333199 169.433106 
L 218.652423 167.823027 
L 218.971647 164.089594 
L 219.290871 161.710987 
L 219.610095 163.05809 
L 219.929319 165.273007 
L 220.248543 165.907571 
L 220.567767 167.008338 
L 220.886991 169.095017 
L 221.206215 169.658897 
L 222.163886 167.820906 
L 222.48311 168.574518 
L 223.121558 172.934337 
L 223.440782 173.358105 
L 224.07923 171.788201 
L 224.717678 173.41338 
L 225.036902 173.048625 
L 225.67535 169.022051 
L 225.994573 166.953051 
L 226.313797 165.843862 
L 226.633021 166.91775 
L 226.952245 167.187828 
L 227.590693 162.935543 
L 228.548365 159.15837 
L 229.186813 154.064202 
L 229.506037 154.952883 
L 230.144484 168.469517 
L 230.463708 170.009608 
L 231.42138 165.653289 
L 231.740604 162.448667 
L 232.059828 158.077173 
L 232.379052 155.715736 
L 232.698276 155.996389 
L 233.0175 157.304684 
L 233.655948 162.757885 
L 233.975171 162.489623 
L 234.294395 161.073826 
L 234.932843 161.652822 
L 235.252067 158.680114 
L 235.571291 154.50822 
L 235.890515 152.408307 
L 236.209739 153.135883 
L 236.528963 153.540554 
L 236.848187 152.066424 
L 237.167411 151.511413 
L 237.486635 153.360437 
L 238.125082 159.750175 
L 238.444306 160.319894 
L 238.76353 158.717673 
L 239.082754 159.427909 
L 239.401978 162.785932 
L 239.721202 163.389364 
L 240.040426 161.523106 
L 240.35965 161.546898 
L 240.678874 161.725016 
L 240.998098 160.394602 
L 241.317322 160.421429 
L 241.955769 163.4973 
L 242.913441 171.749473 
L 243.232665 171.847881 
L 243.551889 171.723214 
L 245.148009 178.27037 
L 245.467233 178.995028 
L 245.786456 179.377127 
L 246.10568 181.344024 
L 246.424904 182.330452 
L 246.744128 181.055183 
L 247.063352 180.410028 
L 247.382576 180.090386 
L 247.7018 178.198387 
L 248.021024 177.334661 
L 248.659472 179.925546 
L 248.978696 181.109497 
L 249.936367 186.724297 
L 250.255591 186.948127 
L 250.894039 180.327931 
L 251.213263 179.093048 
L 251.532487 181.055794 
L 252.170935 188.92161 
L 252.490159 191.550595 
L 252.809383 192.777134 
L 253.128607 193.18032 
L 253.767054 196.297922 
L 254.086278 196.990358 
L 254.405502 197.101702 
L 254.724726 194.937566 
L 255.04395 191.22314 
L 255.363174 189.445576 
L 255.682398 188.76562 
L 256.320846 185.462352 
L 256.64007 186.520312 
L 256.959294 189.041714 
L 257.278518 188.976138 
L 257.597741 188.039578 
L 257.916965 187.536805 
L 258.236189 185.483487 
L 258.555413 184.40409 
L 258.874637 185.535945 
L 259.193861 185.919533 
L 259.513085 183.989003 
L 259.832309 180.579838 
L 260.151533 179.323314 
L 260.470757 179.626181 
L 260.789981 178.137524 
L 261.109205 177.648403 
L 261.747652 181.679688 
L 263.024548 186.646694 
L 263.343772 188.197806 
L 263.662996 188.510454 
L 263.98222 187.732252 
L 264.939892 180.796911 
L 265.578339 178.370662 
L 265.897563 178.241022 
L 266.216787 177.412828 
L 266.536011 175.495062 
L 266.855235 175.076187 
L 267.812907 183.473362 
L 268.132131 184.094526 
L 268.770579 178.097336 
L 269.089803 177.38227 
L 270.047474 182.109917 
L 270.366698 184.929216 
L 270.685922 186.713788 
L 271.005146 186.559239 
L 271.643594 182.684835 
L 272.92049 188.260296 
L 273.239714 188.226097 
L 273.558937 188.713747 
L 273.878161 188.206529 
L 274.516609 180.095052 
L 275.793505 153.60444 
L 276.431953 129.661176 
L 276.751177 118.638176 
L 277.070401 113.71508 
L 277.389624 114.314474 
L 278.028072 120.328443 
L 279.304968 139.065307 
L 279.624192 141.617633 
L 279.943416 141.902784 
L 280.26264 141.802346 
L 280.901088 144.369289 
L 281.220311 144.754706 
L 281.539535 144.354074 
L 282.177983 141.724573 
L 282.497207 143.49509 
L 283.135655 149.968326 
L 283.454879 150.739474 
L 284.093327 149.343156 
L 284.731775 150.625917 
L 285.370222 148.658829 
L 285.689446 150.388306 
L 286.327894 160.247656 
L 286.966342 165.48213 
L 288.881686 184.241698 
L 289.200909 186.495734 
L 289.520133 186.707698 
L 289.839357 184.977665 
L 290.158581 183.982735 
L 290.477805 185.000121 
L 290.797029 185.016258 
L 291.116253 185.785718 
L 291.754701 192.389767 
L 292.073925 190.860633 
L 292.393149 185.856342 
L 292.712373 183.748964 
L 293.031596 185.290486 
L 293.35082 185.967849 
L 293.670044 187.847817 
L 294.308492 194.511967 
L 294.627716 195.454711 
L 294.94694 195.091328 
L 295.266164 194.997207 
L 295.585388 195.127909 
L 295.904612 193.798189 
L 296.223836 193.874148 
L 296.862284 199.891962 
L 297.181507 199.940267 
L 297.500731 199.053282 
L 297.819955 200.306138 
L 298.777627 212.782752 
L 299.096851 212.56572 
L 299.416075 210.386508 
L 300.054523 202.426434 
L 300.373747 198.128202 
L 301.012194 193.415707 
L 301.331418 189.029553 
L 301.969866 172.678014 
L 302.927538 142.474825 
L 303.246762 137.312071 
L 303.565986 134.837154 
L 303.88521 133.881574 
L 304.204434 135.741123 
L 305.162105 153.508236 
L 305.481329 155.455234 
L 306.119777 149.993334 
L 306.758225 144.264623 
L 307.077449 145.759179 
L 307.396673 148.688888 
L 307.715897 149.196105 
L 308.035121 147.520306 
L 308.354345 144.617241 
L 308.673569 144.357134 
L 309.63124 156.216853 
L 309.950464 156.782301 
L 310.269688 155.25254 
L 310.588912 154.399222 
L 310.908136 157.313377 
L 311.22736 161.876973 
L 311.546584 163.256825 
L 312.504256 155.2697 
L 312.823479 154.17311 
L 313.142703 151.496371 
L 313.781151 141.992409 
L 314.100375 142.906708 
L 315.058047 151.202712 
L 315.696495 157.288847 
L 316.015719 157.850557 
L 316.97339 154.879135 
L 317.292614 154.795926 
L 317.611838 156.920533 
L 318.56951 171.903723 
L 318.888734 173.78305 
L 319.207958 174.606011 
L 319.527182 174.761155 
L 319.846406 174.321731 
L 320.16563 173.08027 
L 320.484854 170.450636 
L 321.442525 153.55609 
L 321.761749 152.16859 
L 322.080973 151.748447 
L 322.719421 149.061126 
L 323.038645 149.019078 
L 323.677093 151.429575 
L 323.996317 151.526291 
L 324.315541 152.287111 
L 324.634764 152.32429 
L 325.592436 139.901125 
L 326.230884 135.24953 
L 326.550108 135.068639 
L 326.869332 136.516378 
L 327.188556 138.529323 
L 327.50778 138.563945 
L 327.827004 138.383546 
L 328.465452 143.78573 
L 329.103899 142.801841 
L 329.423123 142.458467 
L 329.742347 140.244907 
L 330.380795 134.209982 
L 330.700019 132.78018 
L 331.657691 130.177041 
L 332.296139 127.157555 
L 332.615362 127.178151 
L 332.934586 126.84895 
L 333.25381 124.267569 
L 333.892258 117.140987 
L 334.211482 117.965848 
L 334.530706 119.332317 
L 334.84993 118.391644 
L 335.169154 116.446657 
L 335.488378 116.07297 
L 336.126826 122.56409 
L 337.084497 131.393636 
L 337.403721 130.131878 
L 337.722945 129.914884 
L 338.042169 132.387157 
L 338.361393 131.728126 
L 339.319065 124.190407 
L 339.638289 120.661537 
L 339.957513 118.947006 
L 340.276737 118.237325 
L 340.59596 118.197426 
L 340.915184 118.808471 
L 341.553632 121.83397 
L 341.872856 122.182959 
L 342.19208 123.317652 
L 342.830528 128.964006 
L 343.468976 135.069817 
L 343.7882 137.374261 
L 344.426647 142.946065 
L 344.745871 143.603208 
L 345.384319 142.357762 
L 346.341991 145.146175 
L 346.661215 145.023845 
L 346.980439 144.242535 
L 347.299663 144.180316 
L 347.618887 144.807811 
L 347.938111 144.67433 
L 348.257334 143.716851 
L 348.576558 141.483312 
L 348.895782 140.413091 
L 349.53423 146.942588 
L 349.853454 147.143384 
L 350.172678 145.938957 
L 350.491902 142.760651 
L 351.13035 134.146145 
L 351.449574 131.630548 
L 351.768798 127.37338 
L 352.726469 104.661903 
L 353.364917 95.541061 
L 353.684141 93.503974 
L 354.003365 94.434805 
L 354.641813 99.007323 
L 354.961037 99.566994 
L 355.280261 98.969333 
L 355.599485 96.932163 
L 355.918709 95.987574 
L 356.557156 98.469283 
L 356.87638 99.573373 
L 357.514828 102.613592 
L 357.834052 102.491207 
L 358.4725 98.645251 
L 359.110948 91.171245 
L 359.430172 89.356221 
L 359.749396 88.550813 
L 360.06862 88.374759 
L 360.387843 88.744938 
L 360.707067 89.836125 
L 361.664739 96.465112 
L 361.983963 96.976362 
L 362.941635 101.334362 
L 363.580083 102.623639 
L 363.899307 103.5466 
L 364.21853 103.444189 
L 364.537754 100.521101 
L 365.176202 88.268747 
L 365.495426 81.889482 
L 366.133874 75.581217 
L 366.453098 72.673858 
L 366.772322 71.634549 
L 367.091546 71.972593 
L 367.41077 73.847594 
L 368.049217 81.652237 
L 368.368441 82.531954 
L 368.687665 82.946261 
L 369.645337 88.183688 
L 369.964561 87.724032 
L 370.283785 89.250333 
L 370.603009 91.736256 
L 370.922233 92.861586 
L 371.241457 93.15763 
L 371.560681 92.764162 
L 372.199128 90.499313 
L 372.837576 91.669283 
L 373.476024 90.106994 
L 374.114472 91.151159 
L 374.433696 89.981237 
L 374.75292 86.622113 
L 375.710592 69.414976 
L 376.029815 67.883681 
L 377.306711 74.38775 
L 377.945159 79.819882 
L 378.264383 80.978443 
L 378.583607 80.938125 
L 378.902831 81.426848 
L 379.222055 80.9284 
L 379.860502 72.879709 
L 380.818174 60.898467 
L 381.456622 54.142869 
L 381.775846 54.347319 
L 383.052742 68.621759 
L 383.69119 74.592926 
L 384.010413 76.704007 
L 384.329637 77.34505 
L 384.648861 76.818713 
L 384.968085 74.876496 
L 385.287309 70.601406 
L 386.564205 45.000095 
L 387.521877 32.641487 
L 387.8411 32.580992 
L 388.160324 32.928814 
L 388.479548 30.355261 
L 388.798772 28.886134 
L 389.117996 29.57476 
L 389.756444 32.085404 
L 390.394892 31.056974 
L 390.714116 31.950801 
L 391.03334 34.702364 
L 391.671787 42.906032 
L 391.991011 45.243564 
L 392.310235 45.233092 
L 392.629459 44.616629 
L 392.948683 44.850074 
L 393.267907 46.043646 
L 393.587131 48.760873 
L 394.225579 55.663392 
L 395.183251 61.976301 
L 395.502475 62.32886 
L 395.821698 61.412179 
L 396.140922 58.793457 
L 396.77937 49.929607 
L 397.417818 34.393878 
L 398.056266 14.127653 
L 398.37549 12.109091 
L 398.694714 14.808967 
L 399.971609 21.855943 
L 400.929281 28.1907 
L 401.248505 28.163313 
L 401.567729 26.458498 
L 401.886953 27.512217 
L 402.206177 31.821967 
L 402.525401 34.434717 
L 402.844625 34.837083 
L 403.163849 36.712949 
L 403.802296 44.300811 
L 404.12152 44.860535 
L 404.440744 44.638369 
L 404.759968 45.276377 
L 405.079192 45.328828 
L 405.71764 40.939596 
L 406.036864 43.160374 
L 406.356088 47.290465 
L 406.675312 48.292013 
L 406.994536 48.38484 
L 407.31376 49.35973 
L 408.271431 50.869797 
L 408.590655 53.429977 
L 409.548327 71.095656 
L 409.867551 73.968867 
L 410.186775 74.080681 
L 410.505999 74.977802 
L 410.825223 77.08379 
L 411.144447 77.899049 
L 411.782894 81.088077 
L 412.102118 81.473588 
L 412.421342 84.387908 
L 413.379014 97.862112 
L 413.698238 99.918119 
L 414.017462 99.235619 
L 414.336686 98.986289 
L 414.65591 99.05241 
L 415.613581 95.183535 
L 416.252029 93.842841 
L 416.571253 92.78647 
L 416.890477 92.612304 
L 417.209701 93.238113 
L 417.528925 93.212409 
L 417.848149 92.523057 
L 418.486597 89.131491 
L 418.805821 86.574952 
L 419.444268 78.376177 
L 419.763492 77.597779 
L 420.082716 79.265236 
L 420.721164 85.053673 
L 421.040388 86.666716 
L 421.359612 86.272609 
L 421.99806 81.177066 
L 422.955732 70.177236 
L 424.232627 61.630453 
L 424.551851 57.668365 
L 425.828747 36.152398 
L 426.147971 31.825749 
L 426.467195 32.791706 
L 427.74409 45.331345 
L 428.701762 49.650802 
L 429.34021 51.208405 
L 429.659434 54.243032 
L 430.297882 63.104602 
L 430.617106 66.127589 
L 431.255553 69.355514 
L 431.894001 76.502825 
L 432.213225 76.862245 
L 432.532449 75.826337 
L 433.170897 77.106852 
L 433.490121 78.280897 
L 433.809345 78.72941 
L 434.128569 76.917196 
L 434.447793 77.229507 
L 434.767017 79.813798 
L 435.08624 80.64934 
L 435.405464 80.130622 
L 435.724688 81.506648 
L 436.043912 83.680136 
L 436.363136 84.183357 
L 436.68236 85.000855 
L 437.959256 91.442808 
L 438.597704 96.287657 
L 439.236151 107.229584 
L 439.555375 108.830251 
L 439.874599 106.659283 
L 440.193823 106.679508 
L 441.470719 122.031465 
L 442.109167 125.995578 
L 442.428391 127.030272 
L 442.747615 125.898396 
L 443.066838 123.812503 
L 443.386062 123.28168 
L 444.343734 125.699589 
L 444.662958 127.346573 
L 444.982182 130.470233 
L 445.301406 134.798406 
L 445.62063 137.133712 
L 446.259078 132.92525 
L 446.578302 133.12929 
L 446.897525 132.29937 
L 447.216749 130.043654 
L 447.535973 128.791047 
L 447.855197 129.697103 
L 448.812869 135.468548 
L 449.770541 142.08976 
L 450.089765 144.072537 
L 450.408989 144.947187 
L 450.728213 146.873619 
L 451.047436 150.761372 
L 451.36666 153.205127 
L 452.643556 154.846647 
L 452.96278 154.155422 
L 453.282004 150.128744 
L 454.239676 134.532016 
L 454.5589 131.075026 
L 454.878123 129.108094 
L 455.516571 123.623065 
L 455.835795 122.756153 
L 456.474243 119.962037 
L 456.793467 120.209538 
L 457.112691 120.311021 
L 457.431915 118.567441 
L 458.070363 112.805107 
L 458.389587 109.559657 
L 458.70881 108.127817 
L 459.028034 107.833563 
L 459.347258 106.791011 
L 459.666482 106.254891 
L 459.985706 107.719036 
L 460.30493 110.127767 
L 460.624154 111.124421 
L 460.943378 111.179556 
L 461.262602 112.066157 
L 461.581826 112.455865 
L 461.90105 112.532676 
L 462.539498 116.080768 
L 463.497169 121.571056 
L 463.816393 122.074258 
L 464.135617 123.311842 
L 464.454841 125.868116 
L 464.774065 127.456077 
L 465.093289 127.078504 
L 465.731737 122.195437 
L 466.050961 124.119249 
L 466.689408 133.855286 
L 467.008632 135.782512 
L 467.327856 136.181503 
L 467.966304 134.262655 
L 468.285528 134.532767 
L 469.2432 139.908629 
L 469.881648 143.769436 
L 470.200872 144.280458 
L 470.520095 143.781521 
L 470.839319 143.784013 
L 471.158543 146.036066 
L 471.796991 153.54649 
L 472.116215 155.36298 
L 472.435439 156.161103 
L 474.031559 165.491733 
L 474.350783 165.570048 
L 474.670006 165.955209 
L 474.98923 166.829064 
L 475.308454 166.857235 
L 475.627678 167.799979 
L 475.946902 170.1024 
L 476.266126 171.357641 
L 476.58535 170.411394 
L 477.223798 166.68969 
L 477.543022 163.904038 
L 477.862246 162.385603 
L 478.18147 163.164433 
L 478.500693 163.114331 
L 478.819917 162.211642 
L 479.139141 161.77713 
L 479.458365 161.605646 
L 479.777589 161.616225 
L 480.096813 161.813864 
L 480.416037 162.291873 
L 480.735261 163.275939 
L 481.054485 163.483718 
L 481.373709 161.266357 
L 482.33138 150.750252 
L 482.650604 150.256239 
L 482.969828 151.573648 
L 483.9275 158.134171 
L 484.885172 166.444028 
L 485.52362 168.94866 
L 485.842844 170.17958 
L 486.481291 174.03187 
L 486.800515 174.978133 
L 487.119739 175.432272 
L 487.438963 175.608701 
L 487.758187 175.59072 
L 488.077411 175.369837 
L 488.396635 174.841767 
L 488.715859 173.757189 
L 489.035083 173.35099 
L 489.354307 173.431388 
L 489.992755 171.132762 
L 490.311978 169.41543 
L 490.950426 163.90175 
L 491.26965 162.743061 
L 491.588874 162.303451 
L 491.908098 162.375364 
L 492.227322 162.992752 
L 492.86577 165.678127 
L 493.184994 165.520064 
L 493.504218 165.645248 
L 493.823442 167.859738 
L 494.461889 174.65929 
L 494.781113 177.2138 
L 495.100337 178.584768 
L 495.419561 177.672524 
L 496.377233 172.522246 
L 496.696457 173.0799 
L 497.015681 173.996159 
L 497.334905 175.703623 
L 497.973353 181.977047 
L 498.292576 184.264051 
L 498.6118 185.202281 
L 498.931024 185.234707 
L 499.250248 186.123595 
L 499.569472 186.541667 
L 499.888696 186.686308 
L 500.527144 190.650315 
L 500.846368 192.847321 
L 501.165592 194.254113 
L 501.484816 193.787933 
L 501.80404 192.975634 
L 502.123263 193.180656 
L 502.761711 195.80892 
L 503.080935 195.979148 
L 503.400159 196.83781 
L 503.719383 198.79031 
L 504.038607 199.264584 
L 504.996279 196.988044 
L 505.315503 197.311963 
L 505.634727 198.953585 
L 505.953951 199.194069 
L 506.273174 198.146956 
L 506.592398 198.811776 
L 507.230846 203.995309 
L 507.55007 203.973534 
L 508.826966 194.218192 
L 509.14619 193.972989 
L 510.103861 197.6812 
L 510.742309 199.006361 
L 511.061533 201.810054 
L 511.699981 209.383689 
L 512.019205 210.741596 
L 512.338429 211.023042 
L 512.657653 210.36091 
L 513.934548 202.887967 
L 514.253772 203.972918 
L 514.572996 204.279582 
L 515.211444 200.266349 
L 515.530668 199.292525 
L 515.849892 198.824544 
L 516.48834 194.338103 
L 516.807564 195.189254 
L 517.446012 200.960616 
L 518.084459 209.022367 
L 518.403683 211.04478 
L 518.722907 212.133876 
L 519.680579 214.103233 
L 519.999803 215.346108 
L 520.319027 215.939525 
L 520.638251 214.4167 
L 521.276699 208.620416 
L 521.595923 205.104232 
L 521.915146 204.837807 
L 522.553594 209.785149 
L 522.872818 210.346914 
L 523.192042 207.89892 
L 524.149714 194.569872 
L 524.468938 192.219423 
L 524.788162 194.023171 
L 526.065057 207.217033 
L 526.384281 207.604367 
L 526.703505 207.180997 
L 527.022729 207.49399 
L 527.661177 209.590646 
L 528.299625 207.936954 
L 528.618849 208.096882 
L 529.257297 210.803473 
L 529.576521 211.134104 
L 529.895744 212.320548 
L 530.534192 216.676146 
L 530.853416 218.407824 
L 531.17264 220.935588 
L 531.491864 221.958978 
L 531.811088 221.96117 
L 532.130312 222.690157 
L 533.087984 227.79653 
L 533.407208 229.1171 
L 533.726431 229.302171 
L 534.364879 227.867425 
L 534.684103 225.570213 
L 535.003327 222.209844 
L 535.322551 221.440633 
L 535.641775 221.15245 
L 535.960999 219.462281 
L 536.280223 219.066045 
L 536.599447 219.776666 
L 537.237895 220.475841 
L 537.557118 220.794502 
L 537.876342 221.28913 
L 538.195566 222.193259 
L 538.51479 223.933758 
L 538.834014 227.33238 
L 539.472462 235.75773 
L 539.791686 236.03032 
L 540.430134 233.713563 
L 540.749358 233.52294 
L 541.387806 238.904785 
L 541.707029 240.033123 
L 542.026253 241.687261 
L 542.664701 246.822646 
L 542.983925 247.491717 
L 543.303149 246.971286 
L 543.622373 246.761227 
L 543.941597 248.507958 
L 544.260821 251.290579 
L 544.580045 252.930322 
L 544.899269 252.454412 
L 545.218493 251.385109 
L 545.537716 250.964514 
L 545.85694 250.994047 
L 546.176164 251.487651 
L 546.495388 252.678377 
L 546.814612 253.381453 
L 547.133836 252.18187 
L 547.45306 252.005811 
L 547.772284 252.768786 
L 548.091508 249.591521 
L 549.368404 229.272834 
L 549.687627 226.141625 
L 550.006851 225.710952 
L 550.326075 227.777481 
L 550.645299 231.569937 
L 550.964523 233.639375 
L 551.283747 233.217258 
L 551.602971 233.596837 
L 552.560643 237.879389 
L 554.156762 251.582323 
L 554.475986 252.433865 
L 554.79521 250.935359 
L 555.114434 246.379306 
L 556.39133 210.080259 
L 557.029778 205.557769 
L 557.349001 203.686219 
L 557.668225 202.647978 
L 557.987449 203.699809 
L 558.625897 207.468759 
L 559.583569 214.992245 
L 559.902793 215.776488 
L 560.222017 216.114469 
L 560.541241 214.418806 
L 560.860465 213.382825 
L 561.179689 214.264359 
L 561.498912 213.985701 
L 561.818136 212.415286 
L 562.13736 212.305575 
L 562.456584 215.351726 
L 562.775808 219.498024 
L 563.095032 221.46122 
L 563.414256 222.168211 
L 563.73348 221.952793 
L 564.052704 220.713258 
L 564.371928 221.358287 
L 564.691152 224.192423 
L 565.329599 233.887509 
L 565.648823 234.848218 
L 565.968047 230.395565 
L 566.287271 223.66543 
L 566.606495 220.213687 
L 566.925719 221.904553 
L 567.564167 226.768364 
L 568.202615 233.726142 
L 568.521839 236.255191 
L 568.841063 237.526343 
L 569.160286 236.394162 
L 569.47951 234.069698 
L 569.798734 232.948034 
L 570.117958 234.246546 
L 570.437182 236.831354 
L 570.756406 238.430292 
L 571.07563 238.052684 
L 571.394854 237.265841 
L 571.714078 237.443856 
L 572.033302 236.925186 
L 572.352526 233.719355 
L 572.990974 220.762014 
L 573.629421 208.52303 
L 573.948645 204.789755 
L 574.267869 202.410807 
L 574.587093 203.75691 
L 575.225541 210.918705 
L 575.544765 213.127917 
L 575.863989 213.640382 
L 576.502437 211.602976 
L 577.140884 208.317214 
L 577.460108 208.069114 
L 577.779332 208.976688 
L 578.098556 211.468436 
L 578.737004 217.654041 
L 579.056228 219.027478 
L 579.375452 219.742607 
L 580.0139 220.397094 
L 580.652348 220.999425 
L 580.971571 223.373065 
L 581.929243 239.024847 
L 582.567691 243.324225 
L 582.886915 243.786953 
L 583.206139 241.311026 
L 583.844587 230.480061 
L 584.802259 211.24925 
L 585.121482 207.705449 
L 585.440706 206.89258 
L 586.079154 202.64829 
L 586.398378 204.20081 
L 586.717602 208.576549 
L 587.036826 210.853632 
L 587.35605 210.360196 
L 587.675274 210.357183 
L 587.994498 212.590125 
L 589.271393 226.415383 
L 590.229065 232.778043 
L 591.186737 227.626213 
L 591.505961 227.868521 
L 591.825185 229.87974 
L 592.782856 238.945695 
L 593.10208 239.678762 
L 593.740528 238.420403 
L 594.059752 239.326043 
L 594.6982 244.799814 
L 595.017424 244.967215 
L 595.336648 244.497431 
L 595.655872 244.915617 
L 596.29432 247.972528 
L 596.613544 248.563348 
L 596.932767 248.47062 
L 597.251991 247.650563 
L 597.890439 243.499143 
L 598.209663 243.44452 
L 598.848111 247.236324 
L 599.167335 247.636224 
L 599.486559 246.914847 
L 599.805783 246.477197 
L 600.125007 249.607827 
L 600.444231 254.290909 
L 600.763454 254.005446 
L 601.082678 250.363615 
L 601.401902 248.632435 
L 601.721126 249.741509 
L 602.04035 252.467513 
L 602.359574 252.857993 
L 602.678798 251.097307 
L 602.998022 251.593673 
L 603.317246 252.835852 
L 603.63647 251.917776 
L 604.594141 246.022521 
L 604.913365 241.70681 
L 605.551813 226.976465 
L 606.190261 212.209094 
L 606.509485 209.190705 
L 606.828709 207.857535 
L 607.147933 205.833192 
L 607.467157 202.161909 
L 607.786381 200.351208 
L 608.424829 201.93854 
L 608.744052 202.592099 
L 609.063276 205.309348 
L 609.3825 209.626242 
L 610.340172 228.803006 
L 610.659396 231.205685 
L 610.97862 231.712005 
L 611.297844 230.561019 
L 611.617068 228.956258 
L 611.936292 229.633969 
L 612.893963 239.812487 
L 613.532411 242.535509 
L 613.851635 243.583167 
L 614.170859 245.087138 
L 614.490083 246.011908 
L 614.809307 245.048503 
L 615.447755 242.338028 
L 615.766979 241.056836 
L 616.086203 240.784778 
L 616.405427 241.393402 
L 616.72465 241.424472 
L 617.043874 240.892657 
L 618.32077 235.211933 
L 618.639994 233.173314 
L 618.959218 230.170051 
L 619.278442 228.276744 
L 619.597666 230.092039 
L 619.91689 232.980457 
L 620.236114 233.066222 
L 621.193785 225.404151 
L 621.513009 224.238234 
L 621.832233 221.380285 
L 622.151457 217.227918 
L 623.109129 202.178844 
L 623.428353 201.005444 
L 624.386024 191.92636 
L 624.705248 190.343048 
L 625.024472 190.281075 
L 625.343696 193.458135 
L 626.301368 210.195536 
L 626.620592 210.84953 
L 626.939816 212.22498 
L 627.578264 216.891159 
L 627.897488 217.144094 
L 628.535935 214.143137 
L 628.855159 214.71325 
L 629.174383 216.082065 
L 629.493607 215.401935 
L 629.812831 214.098704 
L 630.132055 213.304025 
L 630.451279 214.389655 
L 631.089727 220.141003 
L 631.408951 218.787363 
L 631.728175 216.662048 
L 632.047399 216.255532 
L 632.366622 215.628928 
L 632.685846 214.486393 
L 633.00507 214.035452 
L 633.324294 214.063198 
L 633.643518 214.582731 
L 633.962742 214.092387 
L 634.281966 212.360658 
L 634.60119 212.06384 
L 635.239638 214.078742 
L 635.558862 213.847859 
L 635.878086 210.513184 
L 637.154981 193.966272 
L 637.474205 192.236714 
L 638.431877 189.133864 
L 639.070325 185.276947 
L 639.389549 185.988006 
L 640.027997 194.526246 
L 640.666444 203.075517 
L 641.624116 209.81475 
L 641.94334 210.119127 
L 642.262564 210.800108 
L 642.901012 213.160599 
L 643.53946 218.387752 
L 644.177907 214.186071 
L 644.497131 214.299502 
L 644.816355 213.269334 
L 646.412475 200.2103 
L 646.731699 199.129152 
L 647.050923 194.982802 
L 647.689371 184.664665 
L 648.008594 182.35609 
L 648.327818 181.291835 
L 648.966266 176.917927 
L 649.28549 176.784061 
L 649.923938 180.276651 
L 650.243162 180.311219 
L 650.562386 178.877694 
L 650.88161 178.793166 
L 651.520058 183.954337 
L 651.839282 184.648991 
L 652.158505 185.923568 
L 652.796953 187.111849 
L 653.116177 189.333536 
L 653.754625 194.95932 
L 654.073849 195.778685 
L 654.393073 195.444882 
L 654.712297 195.547266 
L 655.350745 200.054471 
L 655.669969 199.599484 
L 656.308416 196.415542 
L 656.62764 195.677243 
L 657.266088 198.319239 
L 657.585312 197.706049 
L 657.904536 196.849669 
L 658.542984 194.231266 
L 659.181432 195.319766 
L 659.819879 193.776065 
L 660.139103 194.404585 
L 660.458327 196.725086 
L 660.777551 200.086204 
L 661.096775 200.833978 
L 662.054447 191.950523 
L 662.692895 188.711666 
L 663.331343 182.766181 
L 664.289014 173.129242 
L 664.608238 171.201659 
L 664.927462 170.492853 
L 665.885134 181.011211 
L 666.204358 182.18397 
L 666.523582 182.772829 
L 666.842806 183.055809 
L 667.16203 183.166515 
L 667.481254 183.157215 
L 667.800477 183.023519 
L 668.119701 182.702303 
L 668.438925 182.04191 
L 668.758149 182.477499 
L 669.715821 188.064124 
L 670.035045 186.752861 
L 670.354269 183.520924 
L 670.673493 182.083267 
L 670.992717 183.508073 
L 671.311941 186.721091 
L 671.631165 187.998435 
L 671.950388 186.196232 
L 672.269612 185.704461 
L 672.90806 190.804321 
L 673.227284 191.815959 
L 673.546508 191.550438 
L 673.865732 193.376308 
L 674.184956 196.408673 
L 674.50418 196.838354 
L 675.142628 193.062011 
L 675.461852 192.313904 
L 675.781075 192.270693 
L 676.100299 191.16502 
L 676.419523 188.474858 
L 676.738747 188.17095 
L 677.377195 196.031641 
L 677.696419 197.425825 
L 678.015643 194.950605 
L 678.334867 190.931251 
L 678.654091 188.710947 
L 678.973315 188.988362 
L 679.930986 197.344786 
L 680.25021 198.96836 
L 680.569434 199.197771 
L 681.207882 197.04722 
L 681.84633 194.164957 
L 682.165554 194.509897 
L 682.484778 196.596541 
L 683.44245 211.549617 
L 683.761673 211.181158 
L 684.400121 204.68149 
L 685.677017 189.505699 
L 685.996241 187.673686 
L 686.315465 187.849665 
L 686.634689 188.369767 
L 686.953913 187.732595 
L 687.273137 187.384272 
L 687.59236 188.907298 
L 687.911584 189.526839 
L 688.230808 187.788445 
L 688.550032 188.112225 
L 688.869256 190.651047 
L 689.18848 191.362713 
L 689.826928 189.691525 
L 690.146152 188.266598 
L 690.465376 187.382642 
L 690.7846 188.369265 
L 691.423047 191.108006 
L 691.742271 192.406227 
L 692.380719 196.46749 
L 692.699943 195.907133 
L 693.019167 194.254255 
L 693.338391 195.969336 
L 693.976839 203.408298 
L 694.296063 205.656561 
L 694.615287 204.427535 
L 695.253735 189.969943 
L 695.572958 187.38498 
L 695.892182 188.418655 
L 697.169078 195.417746 
L 697.488302 198.362581 
L 697.807526 199.627244 
L 698.12675 199.808828 
L 698.445974 200.740019 
L 698.765198 201.113512 
L 699.084422 199.35869 
L 699.722869 194.313595 
L 700.042093 192.135262 
L 700.361317 187.08357 
L 700.999765 175.456222 
L 701.318989 172.125652 
L 702.276661 156.689557 
L 702.595885 155.479895 
L 702.915109 156.800976 
L 703.553556 163.207 
L 703.87278 166.075593 
L 704.511228 168.995638 
L 704.830452 170.425748 
L 705.149676 170.961344 
L 705.4689 170.855299 
L 706.107348 172.51015 
L 706.426572 173.305404 
L 706.745796 176.312688 
L 707.703467 190.491493 
L 708.022691 190.535646 
L 708.341915 188.698159 
L 708.661139 187.6054 
L 708.980363 188.488392 
L 709.618811 191.16623 
L 709.938035 190.731469 
L 710.576483 186.938302 
L 710.895707 187.029869 
L 711.21493 188.825459 
L 711.534154 191.42588 
L 711.853378 192.564971 
L 712.172602 191.033586 
L 712.81105 185.024676 
L 713.130274 184.69795 
L 714.087946 191.067972 
L 715.045617 204.27982 
L 715.364841 205.924206 
L 715.684065 205.964623 
L 716.003289 206.167111 
L 716.322513 204.880314 
L 716.641737 201.496691 
L 716.960961 199.659576 
L 717.280185 200.248557 
L 717.599409 201.794758 
L 718.237857 207.981582 
L 718.557081 208.555406 
L 718.876305 208.767547 
L 719.514752 212.70265 
L 719.833976 213.042649 
L 720.1532 211.645644 
L 720.472424 211.345967 
L 720.791648 212.002131 
L 721.110872 212.176978 
L 721.430096 211.953061 
L 721.74932 211.224659 
L 722.068544 211.394825 
L 723.026215 214.601497 
L 723.345439 214.734535 
L 723.664663 213.929368 
L 723.983887 213.552801 
L 724.303111 213.427046 
L 724.622335 213.492728 
L 724.941559 213.780859 
L 725.260783 214.427475 
L 725.580007 215.737867 
L 726.537679 223.884405 
L 727.176126 224.617907 
L 727.49535 225.243522 
L 727.814574 222.904782 
L 728.453022 214.303041 
L 729.09147 208.407059 
L 729.410694 207.16268 
L 729.729918 206.646017 
L 730.049142 206.613133 
L 730.368366 207.048504 
L 730.68759 208.157683 
L 731.645261 214.546413 
L 731.964485 213.008221 
L 733.241381 200.560342 
L 734.518277 178.804724 
L 735.156724 171.853031 
L 735.475948 173.265325 
L 737.072068 198.702473 
L 737.391292 200.44453 
L 738.02974 195.439858 
L 738.348964 195.06502 
L 738.668188 196.693978 
L 738.987411 199.348865 
L 739.306635 200.789241 
L 739.625859 199.948202 
L 740.583531 190.030321 
L 740.902755 189.371495 
L 741.221979 188.028346 
L 742.179651 179.405258 
L 742.498875 178.531652 
L 742.818098 178.843665 
L 745.052666 190.763191 
L 745.37189 191.100065 
L 745.691114 189.821782 
L 746.329562 186.770754 
L 746.968009 187.299325 
L 747.287233 185.884562 
L 748.883353 175.50628 
L 749.202577 175.212342 
L 750.160249 183.052957 
L 750.479473 180.640055 
L 751.437144 165.480457 
L 751.756368 163.680534 
L 752.075592 163.042306 
L 752.394816 163.264439 
L 752.71404 164.451812 
L 753.033264 167.165027 
L 753.671712 174.058642 
L 754.31016 178.556898 
L 754.948607 184.9168 
L 755.267831 184.987622 
L 755.587055 184.051293 
L 756.863951 174.491249 
L 757.183175 173.622149 
L 757.502399 173.367672 
L 758.46007 169.12875 
L 758.779294 168.360844 
L 759.417742 170.355937 
L 760.05619 167.378435 
L 760.375414 167.097495 
L 760.694638 166.097609 
L 761.013862 165.653647 
L 761.333086 167.302957 
L 761.65231 170.077281 
L 761.971534 171.792567 
L 762.290758 171.511707 
L 762.609981 170.849053 
L 762.929205 171.238698 
L 763.248429 172.864605 
L 764.206101 182.750893 
L 764.844549 187.593109 
L 765.163773 190.571682 
L 765.482997 191.685628 
L 765.802221 191.460882 
L 766.121445 189.791333 
L 767.079116 177.715102 
L 767.39834 176.572841 
L 767.717564 177.438329 
L 768.356012 180.155302 
L 768.99446 179.47146 
L 769.313684 180.776599 
L 769.632908 182.580321 
L 769.952132 182.240319 
L 770.271355 181.343022 
L 770.590579 182.958692 
L 771.229027 188.767237 
L 771.548251 188.714716 
L 771.867475 187.667783 
L 772.186699 188.626055 
L 772.825147 191.715672 
L 773.144371 191.811825 
L 773.782819 189.355242 
L 774.421266 185.550915 
L 774.74049 184.717966 
L 775.059714 184.497508 
L 775.378938 183.038498 
L 776.33661 172.915081 
L 776.655834 168.130662 
L 777.294282 156.422494 
L 777.613506 156.199584 
L 778.251953 157.80278 
L 778.571177 160.385814 
L 779.209625 167.975633 
L 779.528849 169.578024 
L 779.848073 169.885661 
L 780.167297 170.790743 
L 780.486521 172.720594 
L 781.124969 180.719313 
L 781.444193 181.829889 
L 782.08264 179.395794 
L 782.721088 180.594637 
L 783.67876 178.539384 
L 783.997984 177.200783 
L 784.317208 176.419451 
L 784.636432 174.079537 
L 784.955656 170.823238 
L 785.27488 170.354003 
L 786.232551 176.098649 
L 786.551775 177.626281 
L 786.870999 179.912074 
L 787.190223 180.541324 
L 787.509447 176.317209 
L 787.828671 170.486241 
L 788.147895 169.030185 
L 788.467119 173.00854 
L 789.424791 189.436906 
L 790.063238 196.892776 
L 790.382462 197.987584 
L 790.701686 197.225169 
L 791.02091 195.992524 
L 791.340134 195.454628 
L 791.978582 198.22711 
L 792.297806 197.60561 
L 792.61703 198.440455 
L 792.936254 201.125805 
L 793.255478 201.688644 
L 793.893925 195.808287 
L 794.213149 195.32354 
L 794.532373 196.964644 
L 794.851597 199.75947 
L 795.170821 201.533645 
L 795.490045 201.377865 
L 795.809269 200.965536 
L 796.447717 202.698204 
L 796.766941 200.420389 
L 798.043836 176.658676 
L 798.36306 171.410405 
L 798.682284 169.226422 
L 799.001508 169.07559 
L 799.320732 169.13974 
L 799.639956 169.449161 
L 799.95918 170.149941 
L 800.597628 172.643064 
L 801.236076 171.49885 
L 801.874523 172.938765 
L 802.193747 172.184344 
L 802.512971 169.61875 
L 803.470643 159.43451 
L 804.109091 155.387013 
L 804.109091 155.387013 
" clip-path="url(#p463b7a9be6)" style="fill: none; stroke: #1f77b4; stroke-width: 6; stroke-linecap: square"/>
   </g>
  </g>
 </g>
 <defs>
  <clipPath id="p463b7a9be6">
   <rect x="0" y="0" width="842.4" height="266.4"/>
  </clipPath>
 </defs>
</svg>
