<?xml version="1.0" encoding="utf-8" standalone="no"?>
<!DOCTYPE svg PUBLIC "-//W3C//DTD SVG 1.1//EN"
  "http://www.w3.org/Graphics/SVG/1.1/DTD/svg11.dtd">
<svg xmlns:xlink="http://www.w3.org/1999/xlink" width="842.4pt" height="266.4pt" viewBox="0 0 842.4 266.4" xmlns="http://www.w3.org/2000/svg" version="1.1">
 <metadata>
  <rdf:RDF xmlns:dc="http://purl.org/dc/elements/1.1/" xmlns:cc="http://creativecommons.org/ns#" xmlns:rdf="http://www.w3.org/1999/02/22-rdf-syntax-ns#">
   <cc:Work>
    <dc:type rdf:resource="http://purl.org/dc/dcmitype/StillImage"/>
    <dc:date>2025-07-07T09:18:16.315510</dc:date>
    <dc:format>image/svg+xml</dc:format>
    <dc:creator>
     <cc:Agent>
      <dc:title>Matplotlib v3.10.3, https://matplotlib.org/</dc:title>
     </cc:Agent>
    </dc:creator>
   </cc:Work>
  </rdf:RDF>
 </metadata>
 <defs>
  <style type="text/css">*{stroke-linejoin: round; stroke-linecap: butt}</style>
 </defs>
 <g id="figure_1">
  <g id="patch_1">
   <path d="M 0 266.4 
L 842.4 266.4 
L 842.4 0 
L 0 0 
L 0 266.4 
z
" style="fill: none"/>
  </g>
  <g id="axes_1">
   <g id="line2d_1">
    <path d="M 38.290909 254.290909 
L 38.610133 254.290909 
L 39.248581 155.737663 
L 39.567805 135.317451 
L 40.525477 101.604235 
L 40.8447 99.907662 
L 41.163924 104.348037 
L 41.802372 117.083782 
L 42.121596 117.120731 
L 42.44082 116.082122 
L 42.760044 118.901484 
L 43.398492 134.089368 
L 44.994611 180.681423 
L 45.952283 201.499314 
L 46.590731 211.256387 
L 47.548403 222.422972 
L 47.867627 223.92509 
L 48.506075 220.559008 
L 48.825298 220.710524 
L 49.144522 222.000857 
L 49.78297 226.223285 
L 51.37909 237.480198 
L 52.017538 240.968945 
L 52.336762 241.563342 
L 52.655985 239.872847 
L 53.294433 234.601068 
L 53.932881 231.292756 
L 54.571329 229.203022 
L 54.890553 227.484137 
L 55.209777 224.957064 
L 55.529001 223.379766 
L 55.848225 223.511708 
L 56.167449 224.690132 
L 56.805896 228.556574 
L 58.402016 238.875319 
L 59.359688 243.445496 
L 60.31736 246.75402 
L 60.636583 247.624514 
L 60.955807 247.00795 
L 62.232703 235.552199 
L 62.551927 234.305945 
L 63.190375 230.928866 
L 63.509599 230.447684 
L 63.828823 231.001708 
L 64.46727 233.681212 
L 65.105718 236.429067 
L 65.744166 236.726662 
L 66.06339 237.267199 
L 66.382614 237.144632 
L 67.021062 235.372971 
L 67.340286 235.609163 
L 67.65951 236.420387 
L 68.617181 240.198422 
L 69.574853 243.994968 
L 69.894077 244.98699 
L 70.213301 244.424751 
L 70.851749 239.261303 
L 71.170973 238.267922 
L 71.490197 238.228218 
L 71.809421 238.776428 
L 72.447868 240.735461 
L 73.724764 245.167453 
L 74.043988 244.822014 
L 74.363212 240.644538 
L 75.00166 228.786279 
L 75.320884 226.555969 
L 75.640108 226.173152 
L 75.959332 226.940143 
L 76.597779 230.200097 
L 77.874675 237.970802 
L 78.193899 238.718542 
L 78.513123 237.132908 
L 79.151571 232.725748 
L 79.790019 230.235947 
L 80.109242 229.677526 
L 80.74769 229.79671 
L 81.386138 230.879898 
L 81.705362 230.463328 
L 82.663034 226.251399 
L 83.301482 223.848038 
L 83.93993 223.784021 
L 84.578377 220.614435 
L 84.897601 220.338364 
L 85.216825 221.378999 
L 85.855273 225.416087 
L 87.451393 236.849985 
L 88.409064 242.000668 
L 89.366736 245.743313 
L 90.005184 247.605886 
L 90.324408 248.079019 
L 90.962856 247.849036 
L 91.28208 247.994966 
L 91.601304 247.387074 
L 91.920527 244.430834 
L 92.558975 236.916084 
L 92.878199 235.593821 
L 93.197423 235.447218 
L 93.516647 236.028843 
L 94.155095 238.273004 
L 95.431991 243.476315 
L 95.751215 244.143951 
L 96.070438 242.359587 
L 96.708886 234.284209 
L 97.02811 232.618752 
L 97.347334 232.095567 
L 97.985782 231.756427 
L 98.305006 231.443933 
L 98.62423 231.298854 
L 98.943454 231.703605 
L 99.262678 232.535736 
L 99.581902 232.973626 
L 99.901125 232.206605 
L 100.539573 227.769893 
L 100.858797 226.694057 
L 101.178021 227.01618 
L 101.497245 228.186602 
L 102.454917 233.688541 
L 103.731812 240.842582 
L 104.689484 244.839204 
L 105.647156 247.725791 
L 106.604828 249.756494 
L 106.924052 250.285497 
L 107.243276 250.36907 
L 107.5625 249.438138 
L 108.200947 246.903624 
L 108.520171 245.860721 
L 109.477843 239.612708 
L 109.797067 239.172533 
L 110.116291 239.440801 
L 110.754739 241.066852 
L 111.393187 243.181008 
L 111.71241 243.399741 
L 112.350858 241.182156 
L 113.30853 239.707267 
L 113.946978 237.144638 
L 114.90465 235.569736 
L 115.223874 235.747213 
L 115.543098 236.517395 
L 116.500769 240.23259 
L 117.777665 245.104587 
L 118.735337 247.832583 
L 119.054561 248.565714 
L 119.373785 248.870643 
L 120.331456 247.677171 
L 120.65068 247.781867 
L 121.289128 248.481865 
L 121.608352 248.936763 
L 121.927576 249.184539 
L 122.566024 248.970308 
L 122.885248 249.095984 
L 123.523695 249.6957 
L 125.439039 251.795884 
L 126.396711 252.540421 
L 127.673606 253.21671 
L 128.950502 253.636629 
L 129.908174 253.830473 
L 130.227398 253.421728 
L 131.823517 248.056265 
L 132.461965 247.00715 
L 133.100413 246.305473 
L 133.419637 246.24405 
L 133.738861 246.449715 
L 134.377309 247.027702 
L 135.015757 247.050434 
L 135.654204 247.743424 
L 136.292652 248.49516 
L 136.9311 249.01319 
L 137.250324 248.910734 
L 138.207996 247.815945 
L 138.846444 247.963068 
L 139.484891 247.625241 
L 139.804115 247.783652 
L 140.442563 248.535834 
L 142.357907 251.166667 
L 143.315578 252.099036 
L 144.27325 252.76971 
L 145.550146 253.363166 
L 147.146265 253.793249 
L 148.742385 254.023836 
L 149.061609 253.684891 
L 149.700057 251.876186 
L 150.019281 251.418909 
L 150.338505 251.240053 
L 150.976953 251.34684 
L 152.253848 252.156984 
L 153.21152 252.747267 
L 153.530744 252.568681 
L 154.488416 249.455426 
L 154.80764 249.092603 
L 155.126863 249.05359 
L 155.765311 249.284227 
L 156.084535 249.069142 
L 156.403759 248.469878 
L 157.680655 243.979942 
L 157.999879 242.48907 
L 158.319103 241.691357 
L 158.638327 241.649867 
L 158.95755 242.074984 
L 159.595998 243.611154 
L 161.192118 247.860679 
L 162.14979 249.762468 
L 163.107461 251.142369 
L 164.065133 252.115092 
L 165.022805 252.791749 
L 166.299701 253.380518 
L 167.89582 253.803489 
L 169.811164 254.060741 
L 172.045731 254.194728 
L 172.364955 253.897435 
L 173.641851 249.935209 
L 173.961075 249.302439 
L 174.280299 248.287287 
L 175.557194 241.805158 
L 176.514866 239.217899 
L 177.472538 235.843847 
L 177.791762 236.043255 
L 178.110986 236.816336 
L 179.387881 241.295447 
L 179.707105 239.728292 
L 180.345553 232.175155 
L 180.664777 230.473748 
L 180.984001 230.116425 
L 181.303225 230.487245 
L 181.622449 229.715485 
L 182.260897 225.364604 
L 182.580121 225.246756 
L 182.899344 226.209719 
L 183.537792 229.727173 
L 185.133912 239.493732 
L 186.091584 243.869127 
L 187.049255 247.044614 
L 187.368479 247.856806 
L 187.687703 247.754506 
L 188.326151 244.965217 
L 188.645375 244.454398 
L 188.964599 244.293223 
L 189.283823 243.686578 
L 189.603047 241.813183 
L 190.560718 233.22472 
L 190.879942 231.751676 
L 191.51839 227.038083 
L 192.156838 221.471971 
L 192.795286 218.410774 
L 193.11451 217.960982 
L 193.433734 218.979483 
L 194.072182 223.215673 
L 194.391406 225.769285 
L 194.710629 227.152611 
L 195.349077 225.985191 
L 195.668301 226.638885 
L 196.306749 229.816455 
L 196.945197 233.117306 
L 197.264421 231.188106 
L 197.902869 221.515558 
L 198.222093 219.994948 
L 198.541316 217.02707 
L 199.179764 202.394052 
L 199.498988 198.528698 
L 199.818212 196.512061 
L 200.137436 195.305619 
L 200.45666 194.90448 
L 200.775884 195.38755 
L 201.095108 195.600526 
L 201.414332 195.603211 
L 201.733556 196.944531 
L 202.372003 203.520484 
L 204.287347 226.702152 
L 205.245019 234.932976 
L 205.883467 239.104376 
L 206.202691 240.184654 
L 206.521914 237.577938 
L 207.160362 225.408297 
L 208.118034 217.715176 
L 208.756482 211.554538 
L 209.075706 209.861265 
L 209.39493 209.368348 
L 209.714154 209.498425 
L 210.033378 209.822488 
L 210.352601 209.804282 
L 211.310273 208.284844 
L 211.629497 208.264175 
L 211.948721 207.522622 
L 212.587169 204.864609 
L 213.225617 198.337202 
L 213.544841 197.435767 
L 213.864065 198.908305 
L 214.502512 205.431156 
L 216.098632 224.631206 
L 217.056304 233.37017 
L 217.375528 234.782167 
L 217.694752 233.467697 
L 218.013976 228.249246 
L 218.971647 200.757674 
L 219.290871 198.390117 
L 219.610095 198.615665 
L 220.248543 201.725651 
L 220.567767 201.079398 
L 221.206215 194.122413 
L 221.525439 192.751578 
L 221.844663 192.395954 
L 222.48311 189.738531 
L 222.802334 190.628713 
L 223.440782 195.816327 
L 224.07923 203.236164 
L 225.67535 223.587529 
L 226.633021 232.673405 
L 227.590693 239.26261 
L 227.909917 240.63302 
L 228.229141 240.521735 
L 228.867589 238.149615 
L 229.186813 237.178569 
L 229.825261 233.958583 
L 230.144484 233.833937 
L 230.463708 234.486542 
L 231.42138 237.489713 
L 232.059828 239.414959 
L 233.655948 245.231514 
L 233.975171 245.177523 
L 234.613619 241.684436 
L 234.932843 241.071759 
L 235.252067 241.166243 
L 235.571291 241.692247 
L 236.209739 243.36162 
L 237.486635 246.977998 
L 237.805859 246.858643 
L 238.125082 241.164821 
L 238.76353 217.282446 
L 239.082754 210.604282 
L 239.401978 207.719209 
L 239.721202 207.605261 
L 240.040426 209.199553 
L 240.678874 214.894336 
L 241.636546 224.747029 
L 241.955769 225.503498 
L 242.913441 215.010601 
L 243.232665 213.347405 
L 243.551889 209.464265 
L 244.828785 181.74966 
L 245.467233 175.535587 
L 245.786456 174.640869 
L 246.10568 174.387408 
L 246.424904 173.143153 
L 247.382576 167.332891 
L 248.021024 167.22398 
L 248.340248 165.459664 
L 248.978696 159.972076 
L 249.617144 152.003546 
L 249.936367 150.295351 
L 250.255591 150.028883 
L 250.574815 149.584107 
L 250.894039 148.487229 
L 251.213263 148.060466 
L 251.532487 148.298572 
L 251.851711 150.079764 
L 253.128607 168.85028 
L 255.682398 216.048892 
L 256.64007 227.594045 
L 257.597741 235.807046 
L 258.236189 239.859258 
L 258.555413 238.951848 
L 259.193861 228.625315 
L 259.832309 224.813626 
L 260.151533 222.873273 
L 260.470757 221.793427 
L 260.789981 222.286973 
L 261.747652 227.005083 
L 262.3861 227.766376 
L 263.024548 230.635522 
L 264.939892 241.346579 
L 265.897563 245.199625 
L 266.855235 247.977846 
L 267.174459 248.483934 
L 267.812907 248.577114 
L 268.132131 246.970923 
L 268.770579 238.434067 
L 269.409026 234.313303 
L 270.685922 216.537929 
L 271.32437 205.055398 
L 271.962818 194.400299 
L 273.239714 169.147151 
L 274.197385 148.346578 
L 275.155057 121.829383 
L 276.112729 98.211376 
L 277.070401 81.029855 
L 277.708848 70.312368 
L 278.028072 65.349321 
L 278.66652 52.431648 
L 279.624192 39.63197 
L 279.943416 35.075723 
L 280.26264 33.268283 
L 280.901088 27.765216 
L 281.220311 22.022772 
L 281.539535 13.777324 
L 281.858759 12.109091 
L 282.177983 19.717093 
L 282.816431 48.676401 
L 284.412551 130.19741 
L 285.050999 155.37212 
L 285.370222 161.1073 
L 286.00867 157.575106 
L 286.327894 158.098614 
L 286.647118 158.174577 
L 286.966342 158.547672 
L 287.285566 159.276382 
L 287.924014 161.52593 
L 288.243238 162.830795 
L 288.881686 167.04593 
L 290.797029 183.621863 
L 294.308492 215.847045 
L 295.585388 225.066693 
L 296.54306 230.88423 
L 297.500731 236.252642 
L 298.777627 242.379977 
L 299.735299 245.891034 
L 300.692971 248.446838 
L 301.650642 250.251291 
L 302.608314 251.507375 
L 303.565986 252.37584 
L 304.523658 252.974327 
L 305.800553 253.492464 
L 307.396673 253.863714 
L 309.63124 254.112873 
L 313.142703 254.245783 
L 315.696495 254.22371 
L 316.654167 253.910686 
L 317.931062 253.916621 
L 320.804077 253.894541 
L 323.996317 254.164668 
L 328.465452 254.268642 
L 329.423123 254.275261 
L 329.742347 254.165837 
L 330.061571 253.562611 
L 331.019243 250.58494 
L 331.338467 250.04153 
L 331.657691 249.837175 
L 332.296139 249.880747 
L 332.934586 250.1471 
L 333.573034 250.568421 
L 334.211482 250.541096 
L 334.84993 250.879232 
L 337.403721 252.782743 
L 338.680617 253.359865 
L 338.999841 253.218715 
L 339.319065 251.899812 
L 339.957513 247.231106 
L 340.276737 246.161365 
L 341.234408 244.379974 
L 341.553632 244.259345 
L 341.872856 244.310251 
L 342.19208 243.98827 
L 342.511304 243.07099 
L 344.107424 237.224776 
L 344.745871 235.509799 
L 345.384319 232.423843 
L 345.703543 231.879495 
L 346.022767 232.343666 
L 346.661215 234.812605 
L 348.576558 243.681414 
L 349.53423 246.844161 
L 350.491902 249.121643 
L 351.449574 250.721659 
L 352.088022 251.505307 
L 352.407245 251.526341 
L 352.726469 250.535486 
L 353.364917 247.371933 
L 353.684141 246.763253 
L 354.003365 246.657289 
L 354.322589 246.864262 
L 354.961037 247.748167 
L 355.280261 246.41374 
L 355.918709 238.064665 
L 356.237932 236.140805 
L 356.557156 235.604729 
L 356.87638 235.941219 
L 357.514828 237.955342 
L 359.430172 245.367061 
L 359.749396 246.344592 
L 360.06862 246.623368 
L 360.707067 245.080592 
L 361.026291 244.931496 
L 361.345515 245.173442 
L 361.983963 246.063336 
L 362.303187 245.38302 
L 362.941635 241.662817 
L 363.260859 241.061157 
L 363.580083 241.162735 
L 363.899307 241.693187 
L 364.856978 244.308481 
L 366.133874 247.762115 
L 367.091546 249.699693 
L 368.049217 251.100955 
L 369.006889 252.087335 
L 369.964561 252.772985 
L 371.241457 253.369249 
L 371.560681 252.511939 
L 372.518352 245.331175 
L 373.1568 243.911235 
L 373.476024 242.056133 
L 374.114472 237.772324 
L 374.433696 237.312425 
L 374.75292 237.634883 
L 375.391368 239.479652 
L 376.987487 245.236422 
L 377.306711 243.159265 
L 378.264383 217.58485 
L 378.583607 214.734723 
L 378.902831 214.392169 
L 379.222055 215.603919 
L 379.860502 220.338258 
L 380.49895 225.995217 
L 380.818174 226.89912 
L 381.137398 220.039561 
L 381.775846 194.107998 
L 382.414294 180.704147 
L 382.733518 176.056419 
L 383.052742 173.048981 
L 383.371966 171.258866 
L 384.968085 167.785354 
L 385.287309 167.797498 
L 385.606533 168.740362 
L 386.244981 172.92725 
L 387.202653 178.972061 
L 387.8411 183.534982 
L 390.075668 203.586526 
L 390.714116 208.06255 
L 391.671787 218.159065 
L 392.948683 230.816215 
L 393.906355 237.81533 
L 394.864027 242.854594 
L 395.821698 246.394602 
L 396.77937 248.85288 
L 397.417818 250.052897 
L 397.737042 250.404623 
L 399.013938 250.608019 
L 399.652385 250.188342 
L 399.971609 250.12867 
L 400.290833 249.479145 
L 402.525401 238.63549 
L 404.759968 219.847898 
L 406.356088 202.789039 
L 406.675312 200.361519 
L 407.31376 190.707104 
L 407.632983 190.397108 
L 407.952207 192.484314 
L 408.590655 200.194879 
L 409.867551 217.830721 
L 410.186775 220.434022 
L 410.505999 217.188955 
L 411.782894 182.990862 
L 413.05979 156.467682 
L 413.379014 155.8932 
L 413.698238 159.047803 
L 414.017462 164.383252 
L 414.336686 165.122543 
L 415.294357 139.220079 
L 415.613581 140.344874 
L 415.932805 145.098837 
L 416.571253 159.756775 
L 418.167373 197.8799 
L 418.486597 202.249088 
L 418.805821 201.82777 
L 419.444268 196.779343 
L 421.678836 182.150176 
L 421.99806 181.677717 
L 422.636508 184.837731 
L 422.955732 185.503228 
L 423.274955 183.722189 
L 423.913403 169.939209 
L 424.232627 167.190162 
L 424.551851 166.984837 
L 424.871075 162.25849 
L 425.509523 144.052898 
L 425.828747 140.136958 
L 426.147971 138.704694 
L 426.467195 139.357483 
L 426.786419 140.836055 
L 427.105643 144.23947 
L 427.74409 157.621528 
L 428.382538 173.6908 
L 428.701762 178.578237 
L 429.020986 178.375928 
L 429.659434 175.212859 
L 429.978658 174.810304 
L 430.297882 176.89992 
L 430.93633 186.045459 
L 432.532449 212.879404 
L 433.490121 225.083013 
L 434.447793 233.969037 
L 435.405464 240.243547 
L 436.363136 244.611482 
L 437.320808 247.631571 
L 438.27848 249.712845 
L 439.236151 251.144823 
L 440.193823 252.129281 
L 441.151495 252.805807 
L 442.428391 253.39058 
L 443.705286 253.744493 
L 444.02451 253.693675 
L 444.343734 253.334899 
L 445.301406 251.867251 
L 446.259078 251.057373 
L 447.535973 247.713819 
L 447.855197 247.544011 
L 448.493645 247.766473 
L 449.132093 247.252867 
L 450.089765 246.17696 
L 450.408989 246.179309 
L 451.36666 246.755726 
L 452.324332 246.509649 
L 452.643556 246.397857 
L 452.96278 246.120469 
L 453.282004 245.689523 
L 453.601228 245.479222 
L 453.920452 245.653668 
L 454.5589 246.611747 
L 455.197347 247.845509 
L 455.516571 248.183882 
L 456.155019 247.829287 
L 456.474243 247.907083 
L 457.112691 248.569468 
L 459.347258 251.488994 
L 460.30493 252.331391 
L 461.262602 252.933035 
L 462.539498 253.463592 
L 464.135617 253.847387 
L 465.731737 254.0533 
L 466.370185 253.859427 
L 467.008632 253.641948 
L 467.966304 253.663958 
L 468.923976 253.732138 
L 469.2432 253.435841 
L 469.881648 252.029236 
L 470.200872 251.249889 
L 470.520095 250.174033 
L 471.796991 243.420707 
L 472.435439 239.354856 
L 473.712335 229.610877 
L 474.670006 220.882547 
L 474.98923 220.867917 
L 475.308454 222.050458 
L 475.946902 226.163632 
L 477.543022 237.387904 
L 477.862246 237.23725 
L 478.18147 231.047538 
L 478.819917 211.961256 
L 479.139141 206.730658 
L 479.458365 204.501526 
L 480.096813 205.426215 
L 480.416037 203.587153 
L 481.054485 197.535553 
L 482.650604 162.639721 
L 482.969828 162.086503 
L 483.289052 165.033428 
L 483.9275 176.10322 
L 485.52362 207.13021 
L 485.842844 212.184031 
L 486.162068 212.310553 
L 486.800515 197.618717 
L 487.119739 194.248099 
L 487.758187 193.560647 
L 488.396635 188.647313 
L 488.715859 187.995048 
L 489.035083 188.379907 
L 489.354307 189.713972 
L 489.992755 194.194753 
L 491.26965 205.883535 
L 491.908098 211.539981 
L 492.86577 217.294963 
L 495.100337 235.922075 
L 496.058009 241.427179 
L 497.015681 245.371085 
L 497.973353 248.135177 
L 498.931024 250.052342 
L 499.250248 250.542083 
L 499.569472 250.352366 
L 500.20792 247.978589 
L 500.527144 247.232174 
L 500.846368 245.765686 
L 501.484816 241.521749 
L 501.80404 240.196033 
L 502.761711 234.083971 
L 503.080935 233.401601 
L 503.400159 233.205499 
L 503.719383 232.424771 
L 504.038607 230.4063 
L 505.634727 214.858167 
L 506.273174 209.369341 
L 509.14619 191.754104 
L 510.103861 187.250525 
L 510.423085 186.137108 
L 511.061533 180.529624 
L 511.380757 180.915339 
L 511.699981 183.768404 
L 512.338429 193.024262 
L 513.934548 217.614853 
L 514.89222 228.491405 
L 515.849892 236.363061 
L 516.169116 238.233082 
L 516.48834 238.53726 
L 517.126788 235.744185 
L 518.403683 233.392011 
L 519.042131 232.983581 
L 519.361355 233.152496 
L 519.680579 233.956829 
L 520.319027 236.606964 
L 520.957475 239.586279 
L 521.276699 240.310753 
L 521.915146 239.616546 
L 522.23437 239.929712 
L 522.872818 241.518634 
L 524.468938 245.999687 
L 526.384281 249.791127 
L 527.341953 251.134049 
L 528.299625 252.099994 
L 529.257297 252.778234 
L 530.534192 253.37111 
L 531.491864 253.618696 
L 531.811088 253.42161 
L 532.449536 252.528882 
L 532.76876 252.330694 
L 533.407208 252.318161 
L 534.364879 252.677458 
L 536.280223 253.439785 
L 537.876342 253.825007 
L 540.11091 254.095166 
L 540.749358 254.049469 
L 541.068582 253.613574 
L 541.707029 252.164693 
L 542.664701 250.834959 
L 543.622373 250.194075 
L 543.941597 249.849143 
L 544.260821 249.189725 
L 544.899269 247.046883 
L 545.85694 243.291444 
L 546.495388 238.515964 
L 546.814612 237.732545 
L 547.133836 237.84105 
L 547.45306 238.494216 
L 548.091508 240.581163 
L 549.687627 246.091353 
L 550.006851 246.984597 
L 550.326075 245.093449 
L 550.645299 236.655509 
L 551.283747 216.663107 
L 551.602971 212.882318 
L 551.922195 212.03342 
L 552.560643 214.008981 
L 552.879867 212.92455 
L 553.199091 210.728225 
L 553.837538 208.557517 
L 554.79521 202.314538 
L 555.433658 189.2774 
L 556.072106 184.564494 
L 556.39133 179.256032 
L 558.306673 129.651351 
L 558.625897 129.24619 
L 558.945121 133.454939 
L 559.583569 148.654048 
L 561.179689 190.689921 
L 561.498912 197.587478 
L 561.818136 201.6963 
L 562.13736 195.391904 
L 562.775808 158.647934 
L 563.095032 149.098919 
L 563.414256 146.976681 
L 563.73348 149.497376 
L 564.371928 161.581806 
L 565.648823 191.265621 
L 565.968047 195.842583 
L 566.287271 196.67921 
L 566.606495 196.808835 
L 566.925719 197.154512 
L 567.244943 197.055851 
L 567.564167 196.777075 
L 567.883391 196.054481 
L 568.202615 195.049846 
L 568.841063 190.27598 
L 569.160286 189.89622 
L 569.47951 191.958141 
L 570.437182 203.068517 
L 574.587093 223.687755 
L 574.906317 225.373976 
L 575.225541 225.946594 
L 575.544765 224.157196 
L 575.863989 219.793161 
L 576.821661 202.53585 
L 577.140884 201.608894 
L 577.460108 202.916981 
L 578.098556 208.911505 
L 579.694676 226.713442 
L 580.652348 234.834751 
L 580.971571 237.031337 
L 581.290795 238.234837 
L 581.610019 238.022058 
L 581.929243 237.410549 
L 582.248467 236.458527 
L 582.567691 235.046363 
L 582.886915 234.281398 
L 583.206139 234.52422 
L 583.525363 235.378209 
L 584.483035 239.37131 
L 585.440706 243.388213 
L 585.75993 244.018753 
L 586.398378 243.354313 
L 586.717602 243.410837 
L 587.036826 243.6138 
L 587.675274 244.423844 
L 587.994498 244.528652 
L 588.632946 244.398021 
L 589.590617 242.703426 
L 589.909841 242.931489 
L 590.548289 244.19749 
L 592.144409 248.124732 
L 592.463633 248.526798 
L 592.782856 247.998436 
L 593.421304 245.406669 
L 593.740528 244.882721 
L 594.059752 244.895833 
L 594.378976 245.238813 
L 595.017424 246.40428 
L 596.613544 249.557205 
L 597.571215 250.959256 
L 598.528887 251.975181 
L 599.486559 252.690926 
L 599.805783 252.877469 
L 600.125007 252.845221 
L 600.444231 250.262649 
L 601.082678 238.582339 
L 601.401902 235.698992 
L 601.721126 234.588592 
L 602.04035 234.608101 
L 602.359574 235.321771 
L 602.678798 236.436831 
L 602.998022 236.073291 
L 603.63647 230.384253 
L 603.955694 229.459499 
L 604.274918 229.519546 
L 604.594141 230.123566 
L 604.913365 230.382678 
L 605.232589 229.815603 
L 605.551813 229.585522 
L 605.871037 230.324686 
L 606.509485 233.246282 
L 607.467157 237.77191 
L 609.3825 245.274909 
L 610.340172 247.960881 
L 611.297844 249.896259 
L 611.936292 250.85627 
L 612.255516 249.603638 
L 612.893963 241.944867 
L 613.213187 240.078489 
L 613.532411 239.437221 
L 613.851635 238.441212 
L 614.170859 235.098412 
L 615.766979 213.662163 
L 616.405427 207.219473 
L 616.72465 204.528731 
L 617.043874 203.064127 
L 617.363098 202.346774 
L 617.682322 200.860991 
L 618.001546 200.404107 
L 618.32077 202.044162 
L 618.959218 208.441344 
L 620.555337 226.590614 
L 620.874561 229.58775 
L 621.193785 231.471622 
L 621.513009 230.19833 
L 622.470681 219.750808 
L 623.747577 211.306549 
L 624.066801 210.915585 
L 624.386024 212.221484 
L 625.024472 217.358281 
L 626.620592 231.970076 
L 627.25904 236.57915 
L 627.578264 237.147007 
L 627.897488 232.304242 
L 628.535935 212.084429 
L 629.493607 178.114753 
L 630.132055 163.007441 
L 630.451279 159.309356 
L 630.770503 158.471094 
L 631.089727 161.155501 
L 631.728175 172.326826 
L 633.324294 204.561212 
L 633.643518 207.86274 
L 633.962742 207.774845 
L 634.60119 205.404468 
L 634.920414 205.213877 
L 635.239638 206.723943 
L 635.878086 212.564379 
L 636.197309 215.667386 
L 636.516533 215.626472 
L 637.154981 207.751173 
L 637.474205 207.157511 
L 637.793429 208.472745 
L 638.431877 213.963315 
L 640.027997 229.861581 
L 640.985668 237.066433 
L 641.94334 242.308603 
L 642.901012 246.008844 
L 643.858684 248.584309 
L 644.816355 250.364874 
L 645.135579 249.337941 
L 646.093251 236.885858 
L 647.050923 230.666187 
L 648.008594 225.650546 
L 648.327818 224.843426 
L 648.647042 224.918972 
L 648.966266 225.970869 
L 649.604714 229.596151 
L 651.200834 239.457269 
L 651.839282 242.530752 
L 652.158505 241.479938 
L 652.796953 230.762241 
L 653.116177 227.930613 
L 653.435401 227.128954 
L 653.754625 227.604252 
L 654.393073 229.896323 
L 654.712297 229.948746 
L 655.031521 229.79469 
L 655.350745 230.357811 
L 655.989192 233.105417 
L 657.904536 242.780244 
L 658.862208 246.214431 
L 659.819879 248.685417 
L 660.777551 250.420739 
L 661.735223 251.625613 
L 662.054447 251.937916 
L 662.373671 250.509394 
L 663.012119 242.30641 
L 663.331343 240.234639 
L 663.650567 239.461651 
L 663.96979 239.514949 
L 664.289014 240.074491 
L 664.927462 241.925194 
L 666.523582 246.880041 
L 666.842806 247.686241 
L 667.16203 248.150792 
L 667.481254 246.358752 
L 668.119701 237.593293 
L 668.438925 235.108393 
L 668.758149 230.706429 
L 669.396597 217.344156 
L 670.035045 210.61898 
L 670.354269 205.680215 
L 670.992717 192.468712 
L 671.311941 189.663925 
L 671.631165 190.243028 
L 671.950388 192.882502 
L 672.588836 201.092835 
L 673.546508 214.631436 
L 673.865732 216.47488 
L 674.50418 212.339232 
L 674.823404 212.546378 
L 675.142628 214.16198 
L 675.461852 216.586143 
L 675.781075 217.300359 
L 676.419523 211.700311 
L 676.738747 211.207936 
L 677.057971 212.441057 
L 678.015643 219.247444 
L 678.654091 218.894905 
L 678.973315 220.068869 
L 679.930986 225.476732 
L 680.25021 221.173808 
L 681.527106 185.818138 
L 682.165554 176.782607 
L 682.804002 173.702804 
L 683.123226 169.395754 
L 683.44245 166.922816 
L 683.761673 168.516727 
L 684.400121 177.952104 
L 686.315465 212.599532 
L 686.634689 217.032427 
L 686.953913 216.333635 
L 687.59236 200.28746 
L 687.911584 197.373996 
L 688.230808 197.174948 
L 688.550032 197.860303 
L 688.869256 199.145665 
L 689.18848 201.546045 
L 690.146152 210.839198 
L 690.7846 209.245994 
L 691.423047 209.917698 
L 691.742271 210.952302 
L 692.380719 215.941877 
L 693.657615 227.046715 
L 693.976839 228.202046 
L 694.296063 225.753014 
L 694.615287 221.560523 
L 694.934511 219.042873 
L 695.253735 218.750805 
L 695.572958 217.387293 
L 696.211406 209.264863 
L 696.53063 208.595702 
L 696.849854 209.813227 
L 697.488302 215.085637 
L 699.084422 230.510224 
L 700.042093 237.519514 
L 700.680541 241.10971 
L 700.999765 242.096078 
L 701.638213 241.986611 
L 701.957437 242.364695 
L 702.595885 243.828518 
L 703.553556 246.423069 
L 703.87278 245.992114 
L 704.511228 240.518582 
L 704.830452 239.068062 
L 705.149676 238.718606 
L 705.788124 239.424364 
L 706.107348 238.876718 
L 706.426572 237.642784 
L 706.745796 235.834127 
L 707.703467 227.202365 
L 708.022691 224.965432 
L 708.341915 223.844341 
L 708.661139 224.240279 
L 708.980363 225.555081 
L 709.938035 231.642217 
L 711.21493 239.516449 
L 711.534154 241.130963 
L 711.853378 241.662099 
L 712.172602 239.162375 
L 712.81105 230.77103 
L 713.130274 226.926847 
L 715.045617 190.466867 
L 715.364841 187.211228 
L 715.684065 185.180303 
L 716.003289 184.13902 
L 716.322513 184.310708 
L 716.960961 187.003665 
L 717.280185 187.064338 
L 717.918633 185.015973 
L 718.237857 183.44854 
L 718.876305 175.105284 
L 719.195528 174.100115 
L 719.514752 176.340686 
L 720.791648 189.703829 
L 722.706992 218.838314 
L 723.664663 229.380686 
L 723.983887 232.211096 
L 724.303111 234.043741 
L 724.622335 234.435982 
L 724.941559 234.556901 
L 725.580007 236.123975 
L 725.899231 235.717852 
L 726.856902 230.481992 
L 727.176126 229.613537 
L 727.49535 228.258907 
L 728.133798 223.808027 
L 728.453022 223.747152 
L 728.772246 223.899282 
L 729.410694 222.676264 
L 729.729918 223.386951 
L 730.368366 226.91887 
L 732.283709 239.410649 
L 733.241381 243.849402 
L 734.199053 247.043749 
L 735.156724 249.287033 
L 735.475948 249.246169 
L 736.43362 246.109043 
L 736.752844 243.949192 
L 737.391292 236.405783 
L 737.710516 234.911854 
L 738.02974 234.683993 
L 738.348964 235.242858 
L 738.987411 237.53719 
L 739.945083 241.182998 
L 740.264307 241.210669 
L 740.583531 239.661174 
L 741.221979 232.839943 
L 742.179651 227.929944 
L 743.137322 220.13595 
L 744.094994 215.617618 
L 744.414218 214.787884 
L 744.733442 213.49414 
L 745.052666 211.713048 
L 745.37189 211.239066 
L 745.691114 212.482352 
L 746.329562 217.534332 
L 747.925681 232.047585 
L 748.883353 238.610854 
L 749.841025 243.384029 
L 750.798696 246.752528 
L 751.756368 249.096801 
L 752.075592 249.267946 
L 752.71404 248.078432 
L 753.033264 247.93105 
L 753.352488 248.067096 
L 754.31016 249.037899 
L 755.267831 248.871214 
L 755.587055 249.039464 
L 755.906279 249.063885 
L 756.544727 248.750034 
L 757.502399 248.959719 
L 758.46007 249.258317 
L 759.736966 249.097381 
L 760.05619 248.957064 
L 761.013862 248.044009 
L 762.290758 247.843924 
L 762.609981 248.035605 
L 763.248429 248.7963 
L 764.844549 250.967936 
L 765.802221 251.948531 
L 766.759892 252.661531 
L 768.036788 253.295947 
L 769.313684 253.686069 
L 771.229027 254.005046 
L 774.102043 254.198094 
L 776.017386 254.237404 
L 776.33661 254.039863 
L 777.613506 252.183773 
L 779.848073 244.89327 
L 781.444193 238.143666 
L 782.721088 233.693289 
L 784.317208 225.03128 
L 785.913328 216.491701 
L 786.870999 212.640447 
L 788.467119 207.605054 
L 788.786343 207.129631 
L 789.424791 203.344727 
L 789.744015 203.252961 
L 790.063238 205.016037 
L 790.701686 211.259436 
L 792.297806 228.40774 
L 793.255478 236.066494 
L 794.213149 241.621201 
L 795.170821 245.536474 
L 796.128493 248.259751 
L 796.447717 246.755476 
L 796.766941 239.646129 
L 797.405389 222.10647 
L 798.043836 212.893397 
L 798.36306 210.238275 
L 798.682284 209.231749 
L 799.001508 208.622273 
L 799.320732 208.521719 
L 799.639956 208.663601 
L 799.95918 209.049178 
L 800.916852 211.53426 
L 801.5553 214.577875 
L 802.832195 221.263697 
L 804.109091 231.615522 
L 804.109091 231.615522 
" clip-path="url(#pf93447bb4b)" style="fill: none; stroke: #1f77b4; stroke-width: 6; stroke-linecap: square"/>
   </g>
  </g>
 </g>
 <defs>
  <clipPath id="pf93447bb4b">
   <rect x="0" y="0" width="842.4" height="266.4"/>
  </clipPath>
 </defs>
</svg>
