<?xml version="1.0" encoding="utf-8" standalone="no"?>
<!DOCTYPE svg PUBLIC "-//W3C//DTD SVG 1.1//EN"
  "http://www.w3.org/Graphics/SVG/1.1/DTD/svg11.dtd">
<svg xmlns:xlink="http://www.w3.org/1999/xlink" width="842.4pt" height="266.4pt" viewBox="0 0 842.4 266.4" xmlns="http://www.w3.org/2000/svg" version="1.1">
 <metadata>
  <rdf:RDF xmlns:dc="http://purl.org/dc/elements/1.1/" xmlns:cc="http://creativecommons.org/ns#" xmlns:rdf="http://www.w3.org/1999/02/22-rdf-syntax-ns#">
   <cc:Work>
    <dc:type rdf:resource="http://purl.org/dc/dcmitype/StillImage"/>
    <dc:date>2025-07-07T09:18:16.290045</dc:date>
    <dc:format>image/svg+xml</dc:format>
    <dc:creator>
     <cc:Agent>
      <dc:title>Matplotlib v3.10.3, https://matplotlib.org/</dc:title>
     </cc:Agent>
    </dc:creator>
   </cc:Work>
  </rdf:RDF>
 </metadata>
 <defs>
  <style type="text/css">*{stroke-linejoin: round; stroke-linecap: butt}</style>
 </defs>
 <g id="figure_1">
  <g id="patch_1">
   <path d="M 0 266.4 
L 842.4 266.4 
L 842.4 0 
L 0 0 
L 0 266.4 
z
" style="fill: none"/>
  </g>
  <g id="axes_1">
   <g id="line2d_1">
    <path d="M 38.290909 192.826303 
L 39.248581 206.041869 
L 39.887029 212.541443 
L 40.525477 217.352115 
L 41.163924 220.610804 
L 41.802372 222.45443 
L 42.121596 222.888382 
L 42.44082 223.019914 
L 42.760044 222.866139 
L 43.079268 222.444174 
L 43.717716 220.864132 
L 44.356164 218.416706 
L 45.313835 213.418736 
L 46.590731 204.996855 
L 50.421418 178.082802 
L 51.37909 173.406828 
L 52.017538 171.136168 
L 52.655985 169.494917 
L 53.294433 168.431216 
L 53.932881 167.893208 
L 54.571329 167.829034 
L 55.209777 168.186836 
L 55.848225 168.914756 
L 56.486672 169.960937 
L 57.444344 172.013506 
L 58.72124 175.380166 
L 62.232703 185.141682 
L 63.190375 187.115236 
L 63.828823 188.094108 
L 64.46727 188.752425 
L 65.105718 189.104202 
L 65.744166 189.172865 
L 66.382614 188.98184 
L 67.021062 188.554555 
L 67.978734 187.521882 
L 68.936405 186.089393 
L 70.213301 183.694126 
L 72.128645 179.44201 
L 75.320884 172.158987 
L 76.597779 169.723732 
L 77.874675 167.806051 
L 78.832347 166.703117 
L 79.790019 165.865483 
L 80.74769 165.273241 
L 81.705362 164.906484 
L 82.663034 164.7453 
L 83.620706 164.769783 
L 84.897601 165.056831 
L 86.174497 165.591367 
L 87.770617 166.535675 
L 89.68596 167.952183 
L 95.112767 172.189925 
L 96.708886 173.065054 
L 97.985782 173.511105 
L 98.943454 173.661761 
L 99.901125 173.629312 
L 100.858797 173.390819 
L 101.816469 172.92334 
L 102.774141 172.206034 
L 104.051036 170.88664 
L 105.327932 169.225669 
L 106.924052 166.790874 
L 109.477843 162.43447 
L 112.670082 157.053231 
L 114.266202 154.748427 
L 115.543098 153.229957 
L 116.819993 152.017129 
L 118.416113 150.842701 
L 120.331456 149.779942 
L 126.077487 146.905308 
L 127.354383 145.945938 
L 128.631278 144.748095 
L 130.227398 142.961387 
L 133.100413 139.32878 
L 135.973428 135.807595 
L 137.569548 134.179077 
L 138.846444 133.157308 
L 140.123339 132.457588 
L 141.081011 132.182002 
L 142.038683 132.112675 
L 143.315578 132.284635 
L 144.592474 132.687791 
L 146.507818 133.556664 
L 149.700057 135.063975 
L 150.976953 135.461806 
L 152.253848 135.626309 
L 153.21152 135.549991 
L 154.169192 135.274635 
L 155.446087 134.626553 
L 156.722983 133.709912 
L 158.319103 132.273725 
L 160.55367 129.921519 
L 164.703581 125.465702 
L 166.299701 124.057336 
L 167.576596 123.172936 
L 168.853492 122.572101 
L 169.811164 122.345822 
L 170.768835 122.341651 
L 171.726507 122.586417 
L 172.684179 123.106951 
L 173.641851 123.930081 
L 174.599523 125.082638 
L 175.557194 126.591451 
L 176.514866 128.483349 
L 177.472538 130.785162 
L 178.749433 134.538263 
L 180.026329 139.085433 
L 181.941673 146.976897 
L 187.049255 168.807293 
L 188.326151 173.194776 
L 189.283823 175.914482 
L 190.241495 178.036766 
L 190.879942 179.071687 
L 191.51839 179.769037 
L 192.156838 180.108251 
L 192.795286 180.118293 
L 193.433734 179.83638 
L 194.072182 179.299733 
L 195.029853 178.098549 
L 196.306749 175.952771 
L 200.775884 167.648101 
L 201.733556 166.538188 
L 202.372003 166.076875 
L 203.010451 165.881887 
L 203.648899 165.990443 
L 204.287347 166.439761 
L 204.925795 167.257253 
L 205.564243 168.41149 
L 206.521914 170.684042 
L 207.79881 174.507859 
L 209.39493 180.099397 
L 212.587169 191.540019 
L 213.864065 195.298371 
L 214.821736 197.503735 
L 215.460184 198.604567 
L 216.098632 199.361762 
L 216.73708 199.734085 
L 217.056304 199.763034 
L 217.694752 199.490555 
L 218.333199 198.808692 
L 218.971647 197.754784 
L 219.929319 195.558021 
L 220.886991 192.734197 
L 222.163886 188.211487 
L 224.07923 180.410749 
L 227.271469 167.187739 
L 228.548365 162.692183 
L 229.506037 159.895851 
L 230.463708 157.726187 
L 231.42138 156.198642 
L 232.059828 155.512524 
L 232.698276 155.075061 
L 233.336724 154.871559 
L 233.975171 154.887326 
L 234.613619 155.10767 
L 235.252067 155.517896 
L 236.209739 156.457126 
L 237.167411 157.740947 
L 238.444306 159.903028 
L 240.040426 163.164067 
L 242.274993 168.360536 
L 244.828785 174.314038 
L 246.10568 176.708894 
L 247.063352 178.011414 
L 247.7018 178.576405 
L 248.340248 178.856215 
L 248.978696 178.814418 
L 249.617144 178.41459 
L 250.255591 177.620303 
L 250.894039 176.395133 
L 251.532487 174.702655 
L 252.170935 172.506443 
L 253.128607 168.187942 
L 254.086278 162.531145 
L 255.04395 155.413117 
L 256.001622 146.730204 
L 257.278518 133.106151 
L 259.513085 106.281695 
L 261.747652 79.992031 
L 263.024548 67.153796 
L 263.98222 59.289442 
L 264.939892 53.379257 
L 265.578339 50.721179 
L 266.216787 49.226213 
L 266.536011 48.951721 
L 266.855235 49.012197 
L 267.174459 49.42237 
L 267.493683 50.19697 
L 268.132131 52.898367 
L 268.770579 57.19973 
L 269.409026 62.977409 
L 270.366698 74.066074 
L 271.643594 92.542033 
L 273.239714 119.789912 
L 278.028072 205.497754 
L 279.304968 223.347872 
L 280.26264 233.830254 
L 280.901088 239.138552 
L 281.539535 242.950564 
L 282.177983 245.333424 
L 282.497207 246.01996 
L 282.816431 246.386453 
L 283.135655 246.445318 
L 283.454879 246.208969 
L 283.774103 245.689821 
L 284.412551 243.85279 
L 285.050999 241.033543 
L 286.00867 235.180277 
L 286.966342 227.675693 
L 288.243238 215.680225 
L 290.158581 195.038047 
L 293.35082 160.191738 
L 294.627716 148.356464 
L 295.904612 138.237704 
L 297.181507 129.681971 
L 298.458403 122.535781 
L 299.735299 116.645646 
L 301.012194 111.858081 
L 302.28909 108.019599 
L 303.565986 104.976715 
L 304.842882 102.575943 
L 306.119777 100.663796 
L 307.715897 98.744663 
L 309.312016 97.226868 
L 310.908136 96.032463 
L 312.823479 94.916297 
L 315.377271 93.745044 
L 319.207958 92.018838 
L 321.442525 90.707483 
L 324.315541 88.727573 
L 331.019243 83.994887 
L 333.25381 82.744567 
L 335.169154 81.900651 
L 337.084497 81.279208 
L 338.999841 80.891047 
L 340.915184 80.746976 
L 342.830528 80.857804 
L 344.426647 81.152674 
L 346.980439 81.913345 
L 348.576558 82.263257 
L 349.53423 82.30374 
L 350.491902 82.15364 
L 351.449574 81.761015 
L 352.407245 81.07392 
L 353.364917 80.040415 
L 354.322589 78.608557 
L 355.280261 76.726402 
L 356.237932 74.342009 
L 357.195604 71.403435 
L 358.4725 66.565977 
L 360.06862 59.425221 
L 363.899307 41.751825 
L 365.176202 37.080456 
L 366.133874 34.389164 
L 366.772322 33.07468 
L 367.41077 32.20179 
L 368.049217 31.820056 
L 368.368441 31.828862 
L 368.687665 31.979044 
L 369.006889 32.276797 
L 369.645337 33.339798 
L 370.283785 35.06743 
L 370.922233 37.492684 
L 371.879905 42.288069 
L 373.1568 50.406726 
L 374.75292 62.393065 
L 378.583607 92.082923 
L 379.860502 99.944385 
L 380.818174 104.482574 
L 381.456622 106.705746 
L 382.09507 108.190228 
L 382.414294 108.629516 
L 382.733518 108.852999 
L 383.052742 108.850298 
L 383.371966 108.611036 
L 383.69119 108.145137 
L 384.329637 106.573124 
L 384.968085 104.21365 
L 385.925757 99.371621 
L 386.883429 93.204385 
L 388.160324 83.383092 
L 390.075668 66.516315 
L 393.267907 38.004917 
L 394.544803 28.312801 
L 395.502475 22.276358 
L 396.460146 17.584137 
L 397.098594 15.256951 
L 397.737042 13.569375 
L 398.37549 12.520419 
L 398.694714 12.235113 
L 399.013938 12.109091 
L 399.333162 12.142227 
L 399.652385 12.334399 
L 400.290833 13.195352 
L 400.929281 14.690958 
L 401.567729 16.820225 
L 402.206177 19.582163 
L 403.163849 24.909156 
L 404.12152 31.654078 
L 405.079192 39.813583 
L 406.356088 52.887601 
L 407.632983 68.462551 
L 408.909879 86.530498 
L 410.825223 117.566079 
L 415.932805 203.967769 
L 417.209701 221.874586 
L 418.486597 236.634701 
L 419.444268 245.137682 
L 420.082716 249.388288 
L 420.721164 252.38274 
L 421.359612 254.016709 
L 421.678836 254.290909 
L 421.99806 254.212664 
L 422.317284 253.79573 
L 422.636508 253.053865 
L 423.274955 250.650373 
L 423.913403 247.112245 
L 424.871075 239.918366 
L 425.828747 230.790638 
L 427.105643 216.254138 
L 429.020986 191.167421 
L 432.532449 143.95051 
L 433.809345 129.276853 
L 435.08624 117.253502 
L 436.043912 110.028873 
L 437.001584 104.190915 
L 437.959256 99.604553 
L 438.916928 96.134711 
L 439.874599 93.646313 
L 440.513047 92.465923 
L 441.151495 91.621673 
L 441.789943 91.073542 
L 442.428391 90.781506 
L 443.066838 90.705543 
L 443.705286 90.80563 
L 444.662958 91.198306 
L 448.493645 93.227439 
L 449.770541 93.481127 
L 451.047436 93.473236 
L 452.324332 93.20144 
L 453.601228 92.663411 
L 454.878123 91.85682 
L 456.155019 90.779341 
L 457.431915 89.428645 
L 458.70881 87.802405 
L 460.30493 85.382242 
L 463.497169 80.258769 
L 464.454841 79.065185 
L 465.412513 78.204357 
L 466.050961 77.863735 
L 466.689408 77.743604 
L 467.327856 77.873002 
L 467.966304 78.280969 
L 468.604752 78.996545 
L 469.2432 80.048768 
L 469.881648 81.46668 
L 470.839319 84.342734 
L 471.796991 88.204933 
L 472.754663 93.151283 
L 474.031559 101.351187 
L 475.627678 113.403874 
L 480.096813 148.708153 
L 481.373709 156.753352 
L 482.33138 161.535807 
L 482.969828 163.99432 
L 483.608276 165.785706 
L 484.246724 166.83857 
L 484.565948 167.065746 
L 484.885172 167.081519 
L 485.204396 166.876964 
L 485.52362 166.443157 
L 486.162068 164.932299 
L 486.800515 162.637964 
L 487.758187 157.922179 
L 488.715859 151.944318 
L 489.992755 142.529896 
L 492.546546 121.421041 
L 494.461889 106.398557 
L 495.738785 98.104199 
L 496.696457 93.29307 
L 497.334905 90.923822 
L 497.973353 89.32897 
L 498.292576 88.849762 
L 498.6118 88.577036 
L 498.931024 88.501422 
L 499.250248 88.613548 
L 499.569472 88.904042 
L 500.20792 89.982651 
L 500.846368 91.662279 
L 501.80404 95.14463 
L 502.761711 99.557561 
L 504.357831 108.293163 
L 507.869294 128.36367 
L 509.14619 134.078277 
L 510.103861 137.21952 
L 510.742309 138.62801 
L 511.380757 139.415565 
L 511.699981 139.585084 
L 512.019205 139.612694 
L 512.338429 139.504093 
L 512.976877 138.901043 
L 513.615325 137.821512 
L 514.253772 136.31108 
L 515.211444 133.337191 
L 516.169116 129.650149 
L 517.446012 123.890614 
L 519.680579 112.515473 
L 522.23437 99.660599 
L 523.511266 94.157259 
L 524.788162 89.676777 
L 526.065057 86.155154 
L 527.022729 84.056939 
L 527.980401 82.35695 
L 529.257297 80.605215 
L 530.534192 79.310534 
L 531.811088 78.329533 
L 536.280223 75.296312 
L 537.876342 73.681684 
L 539.472462 72.103894 
L 540.430134 71.405702 
L 541.068582 71.117748 
L 541.707029 71.013226 
L 542.345477 71.127643 
L 542.983925 71.496506 
L 543.622373 72.155324 
L 544.260821 73.139603 
L 544.899269 74.484851 
L 545.537716 76.226577 
L 546.495388 79.660231 
L 547.45306 84.185687 
L 548.410732 89.922783 
L 549.368404 96.991357 
L 550.645299 108.441678 
L 552.241419 125.299062 
L 554.475986 151.812404 
L 558.306673 197.692618 
L 559.902793 214.181384 
L 561.179689 225.226227 
L 562.13736 231.913546 
L 563.095032 237.106312 
L 564.052704 240.894357 
L 564.691152 242.689594 
L 565.329599 243.935921 
L 565.968047 244.663501 
L 566.606495 244.902499 
L 567.244943 244.683079 
L 567.883391 244.035404 
L 568.521839 242.989638 
L 569.160286 241.575946 
L 570.117958 238.831529 
L 571.07563 235.428949 
L 572.352526 230.044324 
L 573.948645 222.290268 
L 576.502437 208.567551 
L 581.929243 178.883757 
L 583.844587 169.65651 
L 585.440706 162.975529 
L 586.717602 158.46977 
L 587.994498 154.843797 
L 588.952169 152.709558 
L 589.909841 151.022008 
L 590.867513 149.729438 
L 591.825185 148.780138 
L 592.782856 148.122398 
L 593.740528 147.704509 
L 595.017424 147.431048 
L 596.613544 147.372844 
L 599.486559 147.338278 
L 600.763454 147.05659 
L 602.359574 146.398943 
L 606.828709 144.3108 
L 608.105605 144.076415 
L 609.063276 144.120524 
L 610.020948 144.399749 
L 610.97862 144.956058 
L 611.936292 145.831419 
L 612.893963 147.067802 
L 613.851635 148.691631 
L 615.128531 151.374812 
L 616.72465 155.351587 
L 619.278442 162.4668 
L 621.832233 169.463555 
L 623.428353 173.245983 
L 624.705248 175.707056 
L 625.66292 177.125434 
L 626.620592 178.121984 
L 627.578264 178.717005 
L 628.535935 178.945276 
L 629.493607 178.841572 
L 630.451279 178.440672 
L 631.408951 177.777353 
L 632.685846 176.544831 
L 633.962742 174.990049 
L 635.878086 172.233967 
L 642.581788 161.707308 
L 645.454803 156.945448 
L 647.689371 152.824947 
L 649.604714 148.862203 
L 651.520058 144.389635 
L 657.585312 129.374496 
L 658.862208 127.038521 
L 659.819879 125.684524 
L 660.777551 124.74077 
L 661.415999 124.37023 
L 662.054447 124.228097 
L 662.692895 124.332799 
L 663.331343 124.702768 
L 663.96979 125.356434 
L 664.608238 126.307304 
L 665.56591 128.254257 
L 666.523582 130.763119 
L 667.800477 134.860108 
L 669.396597 140.953906 
L 671.311941 149.260673 
L 677.377195 176.500561 
L 678.973315 182.392193 
L 680.25021 186.39396 
L 681.527106 189.656307 
L 682.484778 191.55844 
L 683.44245 192.947477 
L 684.080897 193.567883 
L 684.719345 193.929399 
L 685.357793 194.019683 
L 685.996241 193.826399 
L 686.634689 193.337205 
L 687.273137 192.539763 
L 687.911584 191.421733 
L 688.869256 189.116595 
L 689.826928 186.020726 
L 690.7846 182.163661 
L 692.061495 176.085945 
L 693.976839 165.690707 
L 697.488302 146.296813 
L 698.765198 140.307564 
L 699.722869 136.538966 
L 700.680541 133.557639 
L 701.318989 132.081801 
L 701.957437 131.067374 
L 702.595885 130.558961 
L 702.915109 130.496668 
L 703.234332 130.554047 
L 703.87278 131.002997 
L 704.511228 131.856176 
L 705.149676 133.063948 
L 706.107348 135.431894 
L 707.384243 139.366972 
L 709.618811 147.277632 
L 711.534154 153.724604 
L 712.491826 156.385899 
L 713.449498 158.449042 
L 714.087946 159.409439 
L 714.726394 159.979903 
L 715.364841 160.110798 
L 716.003289 159.793246 
L 716.641737 159.059125 
L 717.280185 157.940313 
L 718.237857 155.610533 
L 719.195528 152.59451 
L 720.472424 147.691614 
L 722.068544 140.504872 
L 724.941559 126.112225 
L 727.49535 113.73371 
L 729.09147 107.103924 
L 730.68759 101.542613 
L 731.964485 97.851231 
L 733.241381 94.823727 
L 734.518277 92.451235 
L 735.475948 91.096385 
L 736.43362 90.101253 
L 737.391292 89.462098 
L 738.348964 89.175181 
L 738.987411 89.177744 
L 739.625859 89.334086 
L 740.583531 89.854512 
L 741.541203 90.708772 
L 742.498875 91.858991 
L 743.77577 93.777271 
L 745.37189 96.647277 
L 747.925681 101.85234 
L 751.11792 108.300079 
L 752.71404 111.033016 
L 753.990936 112.800809 
L 755.267831 114.150694 
L 756.544727 115.10958 
L 757.502399 115.589587 
L 758.46007 115.878189 
L 759.417742 115.987613 
L 760.694638 115.875924 
L 761.971534 115.49642 
L 763.248429 114.878084 
L 764.844549 113.813461 
L 766.440668 112.477562 
L 770.590579 108.786134 
L 771.867475 108.042725 
L 772.825147 107.737328 
L 773.782819 107.704196 
L 774.421266 107.858315 
L 775.059714 108.170861 
L 775.698162 108.656804 
L 776.655834 109.743577 
L 777.613506 111.304687 
L 778.571177 113.390651 
L 779.528849 116.045899 
L 780.805745 120.369693 
L 782.401864 126.65405 
L 787.190223 146.310891 
L 788.467119 150.47439 
L 789.424791 152.974351 
L 790.382462 154.814094 
L 791.02091 155.617576 
L 791.659358 156.043288 
L 792.297806 156.064782 
L 792.936254 155.699323 
L 793.574702 154.971462 
L 794.213149 153.905751 
L 795.170821 151.727423 
L 796.128493 148.927035 
L 797.405389 144.368754 
L 799.001508 137.62213 
L 801.236076 126.906591 
L 804.109091 112.498621 
L 804.109091 112.498621 
" clip-path="url(#p34113a87ca)" style="fill: none; stroke: #1f77b4; stroke-width: 6; stroke-linecap: square"/>
   </g>
  </g>
 </g>
 <defs>
  <clipPath id="p34113a87ca">
   <rect x="0" y="0" width="842.4" height="266.4"/>
  </clipPath>
 </defs>
</svg>
